<?xml version="1.0" encoding="UTF-8" standalone="no"?>
<svg
   xmlns:dc="http://purl.org/dc/elements/1.1/"
   xmlns:cc="http://creativecommons.org/ns#"
   xmlns:rdf="http://www.w3.org/1999/02/22-rdf-syntax-ns#"
   xmlns:svg="http://www.w3.org/2000/svg"
   xmlns="http://www.w3.org/2000/svg"
   version="1.1"
   id="svg2"
   viewBox="0 0 841.81512 471.42501"
   height="133.04662mm"
   width="237.57893mm">
  <defs
     id="defs4" />
  <metadata
     id="metadata7">
    <rdf:RDF>
      <cc:Work
         rdf:about="">
        <dc:format>image/svg+xml</dc:format>
        <dc:type
           rdf:resource="http://purl.org/dc/dcmitype/StillImage" />
        <dc:title></dc:title>
      </cc:Work>
    </rdf:RDF>
  </metadata>
  <g
     transform="translate(-1205.1429,-542.86467)"
     id="layer1">
    <g
       transform="translate(1185.7143,317.14286)"
       id="g4426">
      <path
         id="path4436"
         transform="translate(-1185.7143,-317.14286)"
         d="m 1653.252,596.05078 c -2.3466,-0.005 -4.7198,-10e-4 -7.1094,0.0117 -7.2971,0.04 -12.7683,0.0802 -17.334,0.17188 -7.624,0.67246 -15.0995,1.95858 -22.3066,4.23632 -1.2608,0.77687 -2.6011,1.67852 -4.209,2.76758 -2.9428,1.99309 -6.1154,3.62305 -7.0508,3.62305 -0.9354,0 -4.3895,1.74675 -7.6738,3.88086 -3.2844,2.13411 -16.5351,9.20664 -29.4473,15.71679 -6.2629,3.15766 -10.7897,5.46813 -14.4043,7.39649 -5.7421,3.64369 -11.3253,7.50685 -16.6895,11.66015 -0.2988,0.28025 -0.5586,0.51326 -0.875,0.8125 -4.6708,4.41824 -9.1321,8.93321 -9.914,10.03321 -0.7819,1.1 -6.6777,7.175 -13.1016,13.5 -8.5762,8.44423 -13.3739,13.70678 -15.7109,17.61914 -0.6838,3.41015 -0.5712,6.90374 -0.582,10.16406 0.5851,1.24394 1.3106,2.45529 2.0253,3.30469 l 1.9942,4.20117 8.082,-1.68555 c 2.6516,-0.53033 3.3144,-0.76124 3.5547,-0.76953 0.4005,-0.0138 -0.3736,0.59266 4.9297,1.47657 8.4853,1.41421 0.7074,10e-4 -2.8281,7.07226 -8.3602,20.07342 -0.1613,38.52447 21.7187,49.19336 l -14.0254,5.42383 c 2.827,0 2.3665,5.06774 -1.5078,16.57226 -1.713,5.08674 -2.8939,9.3402 -3.5508,12.98633 0,7.56901 1.2273,14.55317 4.8789,18.90039 3.2624,2.81661 8.104,4.40187 12.9121,4.45313 3.068,-0.31206 6.6246,-1.24217 10.7383,-2.91211 0.021,0.10755 0.045,0.20606 0.066,0.3125 0.4059,-0.14522 0.8602,-0.3125 0.9336,-0.3125 0.2079,0 0.377,2.1894 0.377,4.86523 0,0.19077 0.012,0.37517 0.02,0.5625 2e-4,6e-4 -2e-4,10e-4 0,0.002 8.1868,24.47167 33.3336,7.61364 45.1211,-12.4961 1.607,-5.0538 2.8594,-10.6963 2.8594,-13.53125 0,-1.74852 0.8009,-4.16865 1.7793,-5.37695 0.5887,-0.72709 0.9919,-1.20747 1.5469,-1.47266 0,-0.0795 0,-0.1611 -0.01,-0.24023 0.15,0.0384 0.2595,0.0606 0.4062,0.0977 1.14,-0.30111 3.007,0.0739 7.5567,1.01368 1.1282,0.23303 2.2825,0.50624 3.4472,0.80078 0.4206,-0.0399 0.7136,-0.12188 0.9161,-0.23242 -1.485,-0.75038 -3.0327,-1.53757 -4.25,-2.13477 -2.3661,-1.16071 -4.1178,-2.03041 -4.5782,-2.4043 -0.4603,-0.37388 0.3706,-0.25167 3.1719,0.57422 5.4223,1.59861 18.783,6.02018 43.8828,14.38477 0.1109,0.14213 0.2598,0.30985 0.4414,0.49609 54.5433,13.63167 100.4417,29.95512 143.127,59.88086 52.3709,-9.93996 97.17,-43.98031 80.5761,-72.03125 -9.2577,-12.0656 -16.958,-25.27589 -22.164,-40.19922 -4.9908,-13.09103 -19.9068,-31.8154 -20.0215,-43.46875 l -1.7715,-4.16015 2.2891,-0.8711 -4.8496,-0.45703 -13.086,-32.71484 1.084,-1.88867 -0.076,-0.18946 c -0.3076,0.0615 -0.6142,0.12818 -0.9218,0.18946 -4.4045,-6.39201 -5.8692,-11.40555 -5.1934,-15.41016 l -2.0703,-5.1543 -1.7793,-0.87304 -13.375,-27.49024 1.834,-2.22266 -1.1485,0.0508 c -0.276,0.0838 -0.552,0.16821 -0.8281,0.25195 -8.5676,-7.66208 -18.5378,-11.40734 -29.166,-13.25 -5.4996,-0.63332 -12.0844,-1.04323 -20.2695,-1.32617 -3.3195,-0.11475 -7.323,-0.30098 -11.4785,-0.50977 -10.6133,-0.042 -21.1824,-0.10113 -31.0606,-1.90625 -8.191,-0.0509 -16.5769,-0.49661 -24.9922,-0.87695 -3.5324,-0.0504 -7.1457,-0.0842 -10.8593,-0.0918 z m -48.8848,67.4961 c 0.034,0.003 0.056,0.008 0.09,0.0117 0.3037,-0.005 0.5943,-0.0231 0.9102,-0.0117 3.5953,0.1294 7.7754,1.25722 7.7754,2.43164 0,0.29066 -3.2796,1.57658 -7.9219,3.1914 -4.9229,2.38579 -12.9695,4.84419 -18.7988,5.99024 -3.4709,1.02701 -5.9335,1.70117 -6.3184,1.70117 -1.0303,0 -1.0275,-0.4804 -0.3613,-1.23633 -1.4196,-0.59693 0.6972,-2.60647 9.3965,-6.81445 4.8188,-2.20983 9.72,-5.39508 15.2285,-5.26367 z"
         style="fill:#d2ad94;fill-opacity:1" />
      <path
         id="path4434"
         transform="translate(-1185.7143,-317.14286)"
         d="m 1627.8438,597.4043 c -16.4084,0.15365 -18.3471,1.39286 -24.293,6.12109 -3.835,3.04959 -8.8853,6.04936 -18.4082,10.93164 -8.0512,4.12775 -34.3109,16.8572 -42,20.35938 -6.3722,2.90237 -9.1541,5.0809 -18.5,14.48828 -13.2816,13.36892 -22.1461,22.74704 -27.0684,28.63867 -2.6448,3.40172 -11.682,16.52876 -10.6367,17.58815 0.6928,0.69282 -3.4566,2.53514 0.1741,1.25218 5.183,-1.83148 -1.2202,1.58507 1.0541,2.99065 2.0037,1.23833 5.0922,2.35494 2.4438,4.43816 -4.9457,3.89024 8.1501,-0.98434 2.9452,-3.28672 -5.7955,-2.56362 -5.873,-2.56041 -3.9688,0.1582 1.2636,1.80393 1.7151,3.02828 1.2657,4.04102 l 0.012,0.0254 8.082,-1.68555 c 2.6516,-0.53033 3.3144,-0.76124 3.5547,-0.76953 0.4005,-0.0138 -0.3736,0.59266 4.9297,1.47657 8.4853,1.41421 0.7074,0.001 -2.8281,7.07226 -2.7405,6.58014 -3.6915,12.98355 -2.9746,18.99805 0.069,0.0444 0.1578,0.0815 0.2226,0.12695 2.0029,1.40286 2.1744,1.35116 2.4727,-0.74023 0.5082,-3.56353 3.0899,-3.05905 6,1.16992 3.0091,4.37301 13.6559,12.0625 16.6992,12.0625 1.1092,0 2.2668,0.88379 2.6211,2 0.8684,2.73608 1.9873,2.52053 5.3965,-1.04688 1.6662,-1.74352 4.0916,-3.13488 5.666,-3.25 2.4581,-0.17974 2.9391,0.32942 4.4922,4.75586 2.0276,5.7793 5.3249,8.89403 8.7246,8.24414 1.7831,-0.34086 2.583,0.11726 3.2461,1.86133 0.7654,2.01335 4.7581,5.19062 5.3632,4.26758 0.1194,-0.18206 1.0195,-1.61089 2,-3.17578 1.599,-2.55184 2.1577,-2.77559 5.4278,-2.16211 5.3657,1.00662 7.1836,2.28145 7.1836,5.04101 0,3.02731 1.6446,3.1489 4.6347,0.33985 2.6654,-2.504 5.077,-1.93194 5.5372,1.31445 0.2357,1.66364 0.9584,2.28962 2.5781,2.23242 1.2448,-0.0439 2.25,0.5145 2.25,1.25 0,1.69973 1.0046,1.63994 3.4414,-0.20312 3.0491,-2.30622 4.5586,-1.79947 4.5586,1.53125 0,2.7521 0.2847,3 3.4414,3 1.8925,0 3.7166,0.44635 4.0527,0.99023 0.3761,0.60852 1.5241,0.38973 2.9863,-0.56836 2.2151,-1.45135 2.4507,-1.41607 3.4825,0.51172 0.6214,1.16112 2.1064,2.06641 3.3847,2.06641 1.3702,0 3.1594,1.19457 4.4942,3 1.2199,1.65 3.1039,3 4.1875,3 1.3034,0 1.9707,0.6768 1.9707,2 0,1.1 0.45,2.0562 1,2.125 2.0929,0.26162 2.6006,0.43862 6.25,2.17969 2.0625,0.984 3.75,2.1669 3.75,2.62695 0,0.46004 0.9331,1.08049 2.0742,1.37891 1.7324,0.45303 1.8974,0.87391 1,2.55078 -1.3345,2.4935 -1.3493,3.13867 -0.074,3.13867 0.55,0 1,-0.62643 1,-1.39258 0,-1.61907 2.6888,-2.91998 3.459,-1.67383 0.5745,0.92962 -5.6856,6.06641 -7.3926,6.06641 -0.9862,0 -1.1937,0.41348 -1.4668,2.91797 0,0.0214 0.01,0.0514 0.016,0.0781 0.526,0.17526 0.7172,0.23716 1.2539,0.41602 1.8102,2.32137 13.4766,10.82714 21.6309,15.65234 4.3098,2.55027 8.3451,5.91986 10.5,8.76953 2.4813,3.73561 5.19,7.15731 8.0898,10.29492 0.5902,0.62095 1.1903,1.26359 1.7578,1.84375 0.01,0.009 0.017,0.0185 0.025,0.0273 59.0146,59.8594 192.5627,6.5563 185.3692,-39.42774 -3.3885,-3.53656 -6.0155,-6.47842 -7.5313,-8.51171 -3.9122,-5.24789 -15.801,-28.18982 -21.0195,-40.56055 -1.3921,-3.3 -6.1533,-13.25223 -10.5801,-22.11719 -9.056,-18.13503 -11.4159,-24.95797 -9.123,-26.375 0.1539,-0.0952 0.2368,-0.16214 0.3379,-0.23437 l -1.8301,-0.17188 -13.086,-32.71484 0.6934,-1.20899 c -2.4371,-0.33146 -3.0171,-1.35436 -5.9316,-8.13281 -1.8814,-4.3754 -3.4781,-9.30268 -3.5469,-10.94922 l -0.125,-2.99219 0.025,-0.008 -0.072,-0.0352 -13.375,-27.49024 1.834,-2.22266 -1.2598,0.0547 -0.027,-0.0254 c -2.3994,0.17385 -3.7123,-0.41486 -6.4121,-2.58398 -10.0093,-8.04186 -15.6562,-9.29495 -46.5879,-10.33594 -14.2318,-0.47897 -30.2068,-1.3348 -35.5,-1.90039 -5.2933,-0.56558 -24.8723,-1.19268 -43.5078,-1.39453 -9.3692,-0.10148 -16.4466,-0.17036 -21.916,-0.11914 z m -24.045,65.45703 c 3.2398,0 10.3438,2.33412 10.3438,3.39844 0,0.27513 -7.7625,2.95631 -17.25,5.95703 -22.0518,6.97456 -21.75,6.88787 -21.75,6.18164 0,-3.32414 22.5252,-15.53711 28.6562,-15.53711 z m -98.9121,76.92773 c -0.1769,-0.004 -0.3532,0.0248 -0.5332,0.0684 2.657,5.74852 7.0744,10.94016 13.1426,15.33008 1.0376,-0.49314 1.5803,-0.95493 1.4336,-1.32422 -0.1582,-0.39834 -3.2277,-3.88597 -6.8223,-7.75195 -4.4283,-4.76259 -5.8759,-6.29053 -7.2207,-6.32227 z m 25.0039,9.83203 c -0.7066,0.0199 -1.593,0.1768 -2.6816,0.45313 -4.7748,1.21198 -5.0745,2.17188 -1.3164,4.22851 3.411,1.86671 5.6215,1.5911 6.0742,-0.75976 0.5421,-2.81508 0.044,-3.98142 -2.0762,-3.92188 z m -7.9258,7.67774 c -0.1298,-0.004 -0.2377,0.007 -0.3222,0.0312 -0.1527,0.0435 -0.4851,0.12893 -0.6602,0.17773 1.6792,1.03004 3.454,2.0111 5.3379,2.92969 l -13.0215,5.03516 c 1.0059,0.65074 0.8438,2.0633 0.8438,4.32226 0,3.02123 -1.1795,8.13009 -3.0449,13.18946 -3.5608,9.65715 -4.7137,20.34507 -2.5059,23.22656 5.3221,10.45831 13.2416,10.61203 17.0312,10.65039 1.3639,0 4.3071,-0.73115 6.5411,-1.625 2.2339,-0.89385 4.32,-1.36551 4.6367,-1.04883 0.3167,0.31668 0.8068,2.61601 1.0879,5.10938 1.6126,16.29195 23.3561,14.48736 34.7031,2.24804 4.3448,-4.34486 5.7701,-6.65268 7.4277,-12.01953 1.1283,-3.65292 2.3511,-9.00889 2.7168,-11.90234 0.3657,-2.89346 1.2812,-6.77816 2.0352,-8.63282 0.754,-1.85467 1.3711,-3.53587 1.3711,-3.73632 0,-0.70249 -7.0529,-3.30149 -14.7403,-5.43164 -4.8695,-1.34932 -15.208,-6.04514 -27.7597,-12.60743 -12.6693,-6.62374 -19.7307,-9.85549 -21.6778,-9.91601 z"
         style="fill:#cb8f74" />
      <path
         id="path4428"
         d="m 378.42858,495.18522 c -5.80089,-4.62469 -9.81584,-5.59761 -12.04005,-2.9176 -0.70672,0.85154 -2.22432,1.41404 -3.37244,1.25 -2.05021,-0.29293 -2.59763,-2.77752 -1.49781,-6.79826 0.44739,-1.6356 -2.18286,-1.86272 -5.48247,-0.47341 -1.75509,0.73899 -1.85485,0.4033 -1.37138,-4.61481 0.584,-6.06158 -0.44982,-9.91178 -2.66141,-9.91178 -0.81128,0 -1.91136,0.77962 -2.44461,1.73249 -0.88004,1.57254 -1.20061,1.48319 -3.47208,-0.96777 -1.37638,-1.48515 -2.82306,-3.72727 -3.21483,-4.98249 -0.39178,-1.25523 -1.3267,-3.16986 -2.07762,-4.25474 -0.75091,-1.08487 -1.3653,-2.72715 -1.3653,-3.64951 0,-1.93793 -6.32445,-11.66352 -8.72716,-13.42043 -1.40215,-1.02527 -1.11556,-1.35435 2.10513,-2.41728 4.79405,-1.58218 7.21074,-0.91737 15.95456,4.38896 8.81558,5.34987 31.16217,17.14073 35.62733,18.10403 1.80957,0.39039 5.69971,1.60506 8.64475,2.69926 l 5.35461,1.98946 -0.69444,6.48462 c -1.48299,13.848 -6.04292,24.42705 -10.43909,24.21873 -0.86663,-0.0411 -5.80069,-4.04782 -8.82569,-6.45947 z m -340.23155,1.36569 c 0.581102,-0.5811 1.646819,-0.85979 2.36826,-0.61931 0.748946,0.24965 0.295653,0.70294 -1.056551,1.05655 -1.663345,0.43497 -2.053777,0.30483 -1.311709,-0.43724 z m 9.275128,-2.15112 c 1.520705,-1.68113 29.41869,-8.88022 163.456422,-42.18002 54.45,-13.52735 100.87792,-25.29678 103.17315,-26.1543 4.87199,-1.82022 5.09873,-1.72579 8.84838,3.68496 3.25816,4.70153 2.80369,5.43914 -4.00107,6.49385 -6.0104,0.93158 -15.52046,3.80947 -15.52046,4.69671 0,0.42811 -0.81,0.77837 -1.8,0.77837 -0.99,0 -2.2275,0.38961 -2.75,0.86581 -1.03282,0.94129 -13.60582,3.7546 -45.45,10.16983 -11.275,2.27142 -26.35,5.61563 -33.5,7.43157 -13.91535,3.53418 -18.48187,4.34215 -28.72822,5.08295 -11.31619,0.81816 -61.57006,11.69936 -98.77178,21.38653 -4.125,1.07413 -14.925,3.13448 -24,4.57856 -9.075,1.44408 -17.625,2.88221 -19,3.19585 -1.375,0.31364 -2.25539,0.29984 -1.956422,-0.0307 z M 19.42858,484.33599 c 0,-0.21085 0.900621,-0.61888 2.00138,-0.90674 1.100759,-0.28785 1.749201,-0.11534 1.440983,0.38337 -0.538251,0.87091 -3.442363,1.31244 -3.442363,0.52337 z m 12,-4.49904 c 3.680066,-2.01569 100.82512,-34.07123 147,-48.50648 41.79238,-13.06518 66.57185,-20.72319 76,-23.48751 22.89679,-6.71333 50.40011,-16.14816 52.39413,-17.97347 1.41268,-1.29315 4.08089,-2.08313 8.10587,-2.39989 3.3,-0.25971 6.7875,-0.8079 7.75,-1.21821 2.65456,-1.13161 2.12722,0.50153 -2,6.19387 -2.0625,2.84464 -4.65,6.63385 -5.75,8.42046 -1.57027,2.55042 -3.28919,3.63661 -8,5.05525 -6.57623,1.98039 -62.63757,16.31363 -71.57103,18.2986 -3.06407,0.68082 -6.46708,1.71741 -7.56226,2.30353 -2.06411,1.10468 -18.50382,6.01951 -35.86671,10.72274 -5.5,1.48983 -14.725,4.03227 -20.5,5.64986 -5.775,1.6176 -13.01611,3.51899 -16.09136,4.22531 -3.07524,0.70632 -6.11429,1.60742 -6.75344,2.00243 -0.63914,0.39501 -5.09803,1.77233 -9.90864,3.06069 -4.81061,1.28837 -12.12156,3.33908 -16.24656,4.55713 -8.56035,2.52774 -46.976649,12.65724 -51.5,13.57937 -1.65,0.33637 -7.275,1.87671 -12.5,3.42299 -20.701564,6.12639 -31.516315,8.56705 -27,6.09333 z m 442,-70.13668 c -5.775,-1.05298 -12.525,-2.62998 -15,-3.50445 -2.475,-0.87448 -7.425,-2.40879 -11,-3.4096 -3.575,-1.0008 -8.3,-2.5131 -10.5,-3.36067 -19.54876,-7.5313 -25.83048,-9.70619 -28.03429,-9.70619 -1.40839,0 -8.05183,-1.59983 -14.76321,-3.55518 -17.04713,-4.96665 -29.97017,-6.7922 -39.09634,-5.52287 -3.94595,0.54883 -10.45034,0.72324 -14.4542,0.38757 -9.07523,-0.76083 -9.52453,-0.2109 12.03006,-14.72475 5.32512,-3.58568 10.05012,-7.12747 10.5,-7.87064 0.44989,-0.74317 3.3308,-3.00206 6.40202,-5.01975 3.92749,-2.58024 6.39343,-5.15565 8.31241,-8.68146 2.64394,-4.85778 2.86613,-5.01292 7.17953,-5.01292 2.44814,0 5.33582,0.55248 6.41707,1.22773 1.59764,0.99774 2.4849,0.92954 4.73643,-0.36411 1.52378,-0.87551 4.08501,-1.90588 5.6916,-2.28972 1.60659,-0.38383 4.02978,-1.56998 5.38486,-2.63589 1.35508,-1.06591 3.26373,-1.93801 4.24145,-1.93801 0.97773,0 6.54204,-2.46498 12.36514,-5.47774 5.82311,-3.01275 10.58747,-5.24692 10.58747,-4.96481 0,0.2821 0.94246,0.009 2.09435,-0.60794 1.71742,-0.91914 2.4939,-0.7455 4.31445,0.96481 2.37612,2.23225 5.08426,2.71494 6.0912,1.08568 0.99089,-1.60329 3.35687,-1.1657 6.57949,1.21689 2.61291,1.93181 4.11868,2.19408 11.7095,2.03955 9.82438,-0.2 18.45132,-1.50173 28.71101,-4.33226 3.85,-1.06217 10.81978,-2.84095 15.48841,-3.95284 4.98292,-1.18675 10.89739,-3.45665 14.32167,-5.49649 3.20829,-1.91117 6.25101,-3.47485 6.76159,-3.47485 1.4598,0 1.08458,2.62544 -0.57167,4 -2.31311,1.91971 -1.86434,3.89547 0.75,3.30197 2.06016,-0.4677 13.77456,-4.02069 37.25,-11.29796 4.95,-1.53448 13.5,-4.0249 19,-5.53427 5.5,-1.50937 25.975,-7.61266 45.5,-13.56287 40.55204,-12.35815 53.49519,-16.37898 129.5,-40.22957 48.80945,-15.31659 55.31541,-17.08244 58.16073,-15.78602 2.80545,1.27825 6.89961,9.42979 7.89917,15.72739 l 0.65372,4.11867 -3.78193,0.7095 c -4.53362,0.85051 -11.70131,3.61688 -11.05248,4.2657 0.2542,0.2542 3.02098,-0.069 6.14839,-0.71827 7.26555,-1.50832 9.15304,-0.22036 5.30959,3.62308 -3.29949,3.29949 -17.22564,7.7107 -103.83719,32.89117 -36.575,10.6334 -76.80562,22.33053 -89.40138,25.99361 -12.59576,3.66309 -26.09576,8.13078 -30,9.92822 -3.90424,1.79743 -7.88612,3.54679 -8.84862,3.88747 -0.9625,0.34068 -1.75,1.05344 -1.75,1.58391 0,0.53048 -1.2375,0.94719 -2.75,0.92602 -4.44464,-0.0622 -7.16964,1.50013 -9.01753,5.17001 -1.9345,3.84187 -6.24913,5.96889 -21.45758,10.57812 -8.37732,2.53891 -8.92541,2.88889 -13.75,8.78 -2.76369,3.37463 -5.02489,6.47508 -5.02489,6.8899 0,1.79754 4.20658,0.51173 7.34722,-2.24578 1.87924,-1.65 3.90953,-3 4.51174,-3 0.60221,0 1.83206,-1.125 2.733,-2.5 0.90093,-1.375 2.49595,-2.5 3.54449,-2.5 1.0631,0 2.41031,1.1059 3.0455,2.5 1.46854,3.22308 2.70884,3.1855 18.99788,-0.57559 7.32609,-1.69157 20.52017,-4.1159 29.32017,-5.3874 17.25072,-2.49254 44.20206,-8.86535 148,-34.99551 80.29233,-20.21284 85.58513,-21.36908 89.13125,-19.47126 3.7507,2.00732 8.88244,13.56246 9.60068,21.61788 0.5171,5.79945 0.37485,6.15408 -3.44249,8.58219 -7.24462,4.6081 -25.48248,9.07823 -151.78944,37.20382 -47.70928,10.62374 -80.86391,18.85775 -91.43034,22.70687 -11.21991,4.08718 -36.16967,11.819 -38.13864,11.819 -0.89582,0 -3.04677,0.62019 -4.77989,1.3782 -7.94953,3.47685 -12.89282,4.58443 -22.65113,5.07516 -5.775,0.29042 -13.2,0.96829 -16.5,1.50639 -23.85595,3.88993 -39.92199,4.49688 -53.5,2.02116 z m 30.72917,-17.58508 c -0.33229,-0.33229 -1.1948,-0.36781 -1.91667,-0.0789 -0.79773,0.31922 -0.56078,0.55618 0.60417,0.60416 1.05416,0.0434 1.64479,-0.19293 1.3125,-0.52522 z m 6.77083,-1.39583 c 0.78218,-1.2656 -0.54163,-1.2656 -2.5,0 -1.29269,0.8354 -1.26629,0.97149 0.19098,0.98469 0.93004,0.008 1.9691,-0.43469 2.30902,-0.98469 z m -1.01746,-15.97175 c 0.33032,-0.53447 -0.0489,-1.99697 -0.84282,-3.25 -0.79387,-1.25304 -1.74617,-3.85325 -2.11622,-5.77825 -1.43185,-7.44852 -1.27504,-7.29062 -6.54601,-6.5914 -6.00636,0.79677 -10.97749,2.48849 -10.97749,3.73574 0,0.52177 1.40456,1.71525 3.12124,2.65217 1.71668,0.93692 5.40229,3.61599 8.19023,5.95349 4.95539,4.15475 7.96458,5.2304 9.17107,3.27825 z m 81.97369,-31.09907 c -0.37508,-0.60689 -0.24093,-1.54448 0.29812,-2.08353 0.64011,-0.64011 1.18443,-0.44756 1.56919,0.55511 0.69959,1.82308 -0.88407,3.11933 -1.86731,1.52842 z"
         style="fill:#975228" />
    </g>
    <path
       id="path5267"
       d="m 1783.0547,613.70898 -1.2598,0.0547 -3.2207,-2.82812 c -9.2991,-8.1647 -18.9663,-10.5333 -46.9316,-11.5 -10.45,-0.36124 -27.1,-1.30498 -37,-2.09766 -11.2822,-0.90334 -29.383,-1.38011 -48.5,-1.27539 -33.7771,0.18503 -33.4499,0.13218 -43.8496,7.17578 -2.9428,1.99309 -6.1154,3.62305 -7.0508,3.62305 -0.9354,0 -4.3895,1.74675 -7.6738,3.88086 -3.2844,2.13411 -16.5351,9.20664 -29.4473,15.71679 -22.0899,11.13744 -23.978,12.31052 -31.9688,19.86914 -4.6708,4.41824 -9.1321,8.93321 -9.914,10.03321 -0.7819,1.1 -6.6777,7.175 -13.1016,13.5 -14.6816,14.45563 -18.3422,19.62089 -17.414,24.56836 0.3688,1.96602 1.7843,4.90072 3.1464,6.51953 l 1.9942,4.20117 8.082,-1.68555 c 2.6516,-0.53033 3.3144,-0.76124 3.5547,-0.76953 0.4005,-0.0138 -0.3736,0.59267 4.9297,1.47657 8.4853,1.41421 0.7074,0.001 -2.8281,7.07226 -8.3602,20.07342 -0.1613,38.52447 21.7187,49.19336 l -14.0254,5.42383 c 2.827,0 2.3665,5.06774 -1.5078,16.57226 -5.5989,16.62543 -5.5617,24.43794 0.1445,30.74805 4.7779,5.2835 14.6894,7.17796 21.8653,4.17969 1.9745,-0.825 3.7609,-1.5 3.9687,-1.5 0.2079,0 0.377,2.1894 0.377,4.86523 0,11.38261 12.8173,16.69277 25.7539,10.66992 6.4345,-2.99567 14.7154,-11.07848 17.2734,-16.86132 2.4834,-5.61409 4.9727,-15.26213 4.9727,-19.27149 0,-1.74852 0.8009,-4.16865 1.7793,-5.37695 12.335,-6.30818 13.4988,-2.47173 52.0898,10.38672 1.8102,2.32137 13.4766,10.82714 21.6309,15.65234 4.3098,2.55027 8.3451,5.91986 10.5,8.76953 56.7485,85.4332 230.1572,10.43327 189.3869,-39.84325 -2.6882,-4.1305 -8.4695,-15.1555 -12.8476,-24.5 -4.3781,-9.3445 -11.2397,-23.42065 -15.2461,-31.28125 -4.0064,-7.8606 -8.6229,-17.43851 -10.2598,-21.28515 l -2.9765,-6.99414 2.289,-0.8711 -4.8496,-0.45703 -13.0859,-32.71484 1.084,-1.88867 -8.2617,-20.56446 -1.7793,-0.87304 -13.375,-27.49024 z"
       style="fill:none;stroke:#803300;stroke-width:6" />
    <g
       style="color:#000000;clip-rule:nonzero;display:inline;overflow:visible;visibility:visible;opacity:1;isolation:auto;mix-blend-mode:normal;color-interpolation:sRGB;color-interpolation-filters:linearRGB;solid-color:#000000;solid-opacity:1;fill:#debc87;fill-opacity:1;fill-rule:evenodd;stroke:#63420e;stroke-width:6;stroke-linecap:round;stroke-linejoin:miter;stroke-miterlimit:4;stroke-dasharray:none;stroke-dashoffset:0;stroke-opacity:1;color-rendering:auto;image-rendering:auto;shape-rendering:auto;text-rendering:auto;enable-background:accumulate"
       id="g4459">
      <g
         style="color:#000000;clip-rule:nonzero;display:inline;overflow:visible;visibility:visible;opacity:1;isolation:auto;mix-blend-mode:normal;color-interpolation:sRGB;color-interpolation-filters:linearRGB;solid-color:#000000;solid-opacity:1;fill:#debc87;fill-opacity:1;fill-rule:evenodd;stroke:#63420e;stroke-width:6;stroke-linecap:round;stroke-linejoin:miter;stroke-miterlimit:4;stroke-dasharray:none;stroke-dashoffset:0;stroke-opacity:1;color-rendering:auto;image-rendering:auto;shape-rendering:auto;text-rendering:auto;enable-background:accumulate"
         id="g5382">
        <path
           id="path4451"
           d="m 1506.107,738.22507 -278.8021,70.71068 -11.1117,3.03045 2.0203,9.09138 c 0,0 316.1778,-58.58885 309.1067,-61.61931"
           style="color:#000000;clip-rule:nonzero;display:inline;overflow:visible;visibility:visible;isolation:auto;mix-blend-mode:normal;color-interpolation:sRGB;color-interpolation-filters:linearRGB;solid-color:#000000;solid-opacity:1;fill:#debc87;fill-opacity:1;fill-rule:evenodd;stroke:#63420e;stroke-width:6;stroke-linecap:round;stroke-linejoin:miter;stroke-miterlimit:4;stroke-dasharray:none;stroke-dashoffset:0;stroke-opacity:1;color-rendering:auto;image-rendering:auto;shape-rendering:auto;text-rendering:auto;enable-background:accumulate" />
        <path
           id="path4453"
           d="m 1616.2441,714.97125 c -9.0914,-3.03045 44.4467,-13.13198 48.4873,-15.15228 4.0406,-2.02031 365.6752,-89.90358 365.6752,-89.90358 8.6557,-3.58675 19.0867,35.1539 10.1015,36.36549 l -370.6244,84.82236"
           style="color:#000000;clip-rule:nonzero;display:inline;overflow:visible;visibility:visible;isolation:auto;mix-blend-mode:normal;color-interpolation:sRGB;color-interpolation-filters:linearRGB;solid-color:#000000;solid-opacity:1;fill:#debc87;fill-opacity:1;fill-rule:evenodd;stroke:#63420e;stroke-width:6;stroke-linecap:round;stroke-linejoin:miter;stroke-miterlimit:4;stroke-dasharray:none;stroke-dashoffset:0;stroke-opacity:1;color-rendering:auto;image-rendering:auto;shape-rendering:auto;text-rendering:auto;enable-background:accumulate" />
        <path
           id="path4455"
           d="m 1521.1583,698.22303 c -7.0711,1.41421 -311.6417,94.87363 -311.6417,94.87363 l 3.8578,9.72792 c 0,0 285.8635,-73.48885 288.692,-75.61017"
           style="color:#000000;clip-rule:nonzero;display:inline;overflow:visible;visibility:visible;isolation:auto;mix-blend-mode:normal;color-interpolation:sRGB;color-interpolation-filters:linearRGB;solid-color:#000000;solid-opacity:1;fill:#debc87;fill-opacity:1;fill-rule:evenodd;stroke:#63420e;stroke-width:6;stroke-linecap:round;stroke-linejoin:miter;stroke-miterlimit:4;stroke-dasharray:none;stroke-dashoffset:0;stroke-opacity:1;color-rendering:auto;image-rendering:auto;shape-rendering:auto;text-rendering:auto;enable-background:accumulate" />
        <path
           id="path4457"
           d="m 1533.0075,694.56617 470.9331,-148.49242 c 8.2341,-3.39428 17.4394,29.95398 9.1924,32.52691 l -429.2138,127.27922"
           style="color:#000000;clip-rule:nonzero;display:inline;overflow:visible;visibility:visible;isolation:auto;mix-blend-mode:normal;color-interpolation:sRGB;color-interpolation-filters:linearRGB;solid-color:#000000;solid-opacity:1;fill:#debc87;fill-opacity:1;fill-rule:evenodd;stroke:#63420e;stroke-width:6;stroke-linecap:round;stroke-linejoin:miter;stroke-miterlimit:4;stroke-dasharray:none;stroke-dashoffset:0;stroke-opacity:1;color-rendering:auto;image-rendering:auto;shape-rendering:auto;text-rendering:auto;enable-background:accumulate" />
      </g>
    </g>
    <path
       id="path5353"
       d="m 1529.1184,750.78116 c 8.8389,-22.98097 22.6274,-32.17336 20.1526,-38.18376 -2.4749,-6.01041 -4.2427,-4.94975 -4.2427,-4.94975 0,0 -28.2843,-10.25305 -35.3553,-0.35355 -7.0711,9.89949 -6.0104,17.32411 -0.3536,24.74873 5.6569,7.42462 19.799,18.73833 19.799,18.73833 z"
       style="opacity:0.25;fill:#ffffff;fill-rule:evenodd;stroke:none;stroke-width:1px;stroke-linecap:butt;stroke-linejoin:miter;stroke-opacity:1" />
    <path
       id="path5362"
       d="m 1586,786.8622 c -22,-7.5 -22.5,-7.5 -22.5,-7.5 l -36.5,-21 c 0,0 -21,-13 -22,-22 -1,-9 -2.5,-15 0,-20 2.5,-5 6.5,-11 13,-14.5 6.5,-3.5 6.5,-3 11.5,-3.5 5,-0.5 -4,-1.5 7,-1.5 11,0 11,0 11,0 l 42.5,10 39.5,10.5 52.5,15.5"
       style="fill:none;fill-rule:evenodd;stroke:#803300;stroke-width:6;stroke-linecap:round;stroke-linejoin:miter;stroke-opacity:1" />
    <path
       transform="matrix(0.9499333,0,0,1.0527055,-29.580309,-48)"
       d="m 1424.8164,842.97461 c -3.7381,0 -6.1307,0.45453 -8.0195,1.50391 a 3.8001108,3.8001108 0 0 0 -0.1094,0.0644 c -3.4404,2.06426 -5.373,5.73878 -5.373,9.58008 0,3.55746 1.6518,6.73335 4.3085,8.94726 a 3.8001108,3.8001108 0 0 0 0.252,0.19336 c 1.0825,0.75774 2.4827,1.37437 3.9453,1.66211 1.0389,0.20439 2.2959,0.21143 3.5488,0.2461 l 0,55.06835 c -2.1164,0.21598 -3.8625,0.58402 -5.1035,1.27344 a 3.8001108,3.8001108 0 0 0 -0.1094,0.0644 c -3.4413,2.06478 -5.371,5.74082 -5.371,9.58008 0,3.5569 1.7041,6.83434 4.5703,9.03907 a 3.8001108,3.8001108 0 0 0 0.209,0.15039 c 2.1344,1.42297 4.8783,1.95898 8.7226,1.95898 l 16.4649,0 c 3.3286,0 5.8561,-0.0556 8.3359,-1.60547 a 3.8001108,3.8001108 0 0 0 0.094,-0.0606 c 3.1776,-2.11837 5.2188,-5.64304 5.2188,-9.48242 0,-3.61737 -1.7982,-6.90823 -4.5684,-9.03906 a 3.8001108,3.8001108 0 0 0 -0.1367,-0.10156 c -0.9856,-0.68993 -2.3472,-1.35978 -3.8105,-1.6582 -0.6321,-0.12889 -1.5174,-0.0992 -2.2168,-0.15235 l 0,-21.61914 c 3.3893,-3.19188 5.9054,-5.27546 7.8047,-6.28906 2.1365,-1.14025 3.7904,-1.44531 6.9218,-1.44531 4.149,0 5.6642,0.47056 7.4336,1.92773 0.9512,0.78326 1.0941,1.00643 1.3067,1.61914 0.2126,0.61271 0.3965,1.91703 0.3964,4.26758 l 0,21.55664 c -2.1455,0.20182 -3.9327,0.55723 -5.25,1.28906 a 3.8001108,3.8001108 0 0 0 -0.2617,0.16016 c -3.1789,2.11923 -5.2187,5.64501 -5.2187,9.48437 0,3.61738 1.7984,6.90823 4.5683,9.03907 a 3.8001108,3.8001108 0 0 0 0.209,0.15039 c 2.2436,1.49558 5.0268,1.95898 8.8711,1.95898 l 16.4649,0 c 3.3164,0 5.8097,-0.13713 8.1601,-1.5957 3.4169,-2.06734 5.3418,-5.72464 5.3418,-9.55274 0,-3.62007 -1.7477,-6.81315 -4.3086,-8.94726 a 3.8001108,3.8001108 0 0 0 -0.2519,-0.19336 c -1.0337,-0.72361 -2.4146,-1.36722 -3.877,-1.66016 -0.6204,-0.12427 -1.4684,-0.0954 -2.1484,-0.14844 l 0,-23.45117 c 0,-8.24975 -3.02,-15.48559 -8.3692,-20.49023 -5.3492,-5.00464 -12.8688,-7.71289 -21.4492,-7.71289 -5.9037,0 -11.381,1.76189 -16.3437,4.92187 l 0,-26.70312 a 3.8001108,3.8001108 0 0 0 -3.7989,-3.79883 l -17.0527,0 z m 585.9922,0 c -1.8163,0 -3.1648,0.0195 -4.502,0.22851 -1.315,0.20561 -2.6581,0.71806 -3.7187,1.41211 -3.378,2.07573 -5.2813,5.7063 -5.2813,9.50782 0,3.61791 1.7447,6.81224 4.3067,8.94726 a 3.8001108,3.8001108 0 0 0 0.2519,0.19336 c 1.0832,0.7582 2.4845,1.37446 3.9473,1.66211 1.0391,0.20432 2.2958,0.21142 3.5488,0.2461 l 0,54.9082 c -1.092,0.0199 -2.2097,0.0121 -3.123,0.1582 -1.3142,0.21026 -2.6427,0.75226 -3.6504,1.41211 -3.378,2.07572 -5.2813,5.7063 -5.2813,9.50781 0,3.27016 1.3424,6.55263 3.9239,8.51758 2.5814,1.96496 5.8546,2.63086 9.5781,2.63086 l 17.0527,0 a 3.8001108,3.8001108 0 0 0 3.7989,-3.79883 l 0,-20.08008 9.0644,8.00977 c -0.7373,1.53795 -1.2246,3.1353 -1.2246,4.7207 0,3.26966 1.3408,6.55232 3.9219,8.51758 2.5811,1.96526 5.8546,2.63086 9.5781,2.63086 l 17.3477,0 c 3.4646,0 5.9768,-0.13103 8.3359,-1.60547 a 3.8001108,3.8001108 0 0 0 0.094,-0.0606 c 3.1776,-2.11837 5.2188,-5.64304 5.2188,-9.48242 0,-3.61737 -1.7982,-6.90823 -4.5684,-9.03906 a 3.8001108,3.8001108 0 0 0 -0.1367,-0.10156 c -0.9856,-0.68993 -2.3472,-1.35978 -3.8105,-1.6582 -1.4634,-0.29843 -2.9839,-0.35157 -5.1328,-0.35157 l -3.4161,0 -19.0781,-16.81445 12.8184,-10.42969 2.7676,0 c 3.6016,0 6.0708,-0.28259 8.1875,-1.60547 a 3.8001108,3.8001108 0 0 0 0.094,-0.0605 c 3.1776,-2.11841 5.2188,-5.64315 5.2188,-9.48243 0,-3.4596 -1.5776,-6.851 -4.4219,-9.03906 a 3.8001108,3.8001108 0 0 0 -0.1367,-0.10156 c -2.2624,-1.58358 -5.0627,-2.00977 -8.9414,-2.00977 l -16.4668,0 c -3.7396,0 -6.2178,0.28286 -8.334,1.60547 a 3.8001108,3.8001108 0 0 0 -0.094,0.0606 c -3.1778,2.11866 -5.2207,5.64298 -5.2207,9.48437 0,1.55365 0.4605,3.08437 1.1563,4.5625 l -2.8203,2.24805 0,-41.65234 a 3.8001108,3.8001108 0 0 0 -3.7989,-3.79883 l -17.0527,0 z m -148.8066,0.14648 a 3.8001108,3.8001108 0 0 0 -3.7989,3.79883 l 0,15.43555 a 3.8001108,3.8001108 0 0 0 3.7989,3.79883 l 17.3476,0 a 3.8001108,3.8001108 0 0 0 3.7988,-3.79883 l 0,-15.43555 a 3.8001108,3.8001108 0 0 0 -3.7988,-3.79883 l -17.3476,0 z m -492.1114,3.82227 c -24.6466,0 -43.7851,19.86575 -43.7851,45.25586 l 0,9.70312 c 0,24.41233 20.3733,42.46289 47.0195,42.46289 11.2117,0 21.8453,-2.67316 29.2715,-8.06835 5.4931,-3.88423 9.3691,-8.34966 9.3691,-13.8125 0,-6.12659 -5.0206,-11.1504 -11.1484,-11.1504 -2.8872,0 -5.7939,1.27831 -7.9805,3.46485 a 3.8001108,3.8001108 0 0 0 -0.047,0.0508 c -1.9846,2.05819 -2.9884,3.08259 -3.4746,3.51758 -0.4861,0.43499 -0.3886,0.34018 -1.1972,0.78125 a 3.8001108,3.8001108 0 0 0 -0.1348,0.0781 c -2.6528,1.59168 -8.0514,2.83985 -14.2168,2.83985 -8.1346,0 -14.4511,-2.19974 -18.6523,-5.72657 -4.2013,-3.52682 -6.5098,-8.357 -6.5098,-14.73242 l 0,-9.4082 c 0,-13.65126 8.9911,-22.95703 22.0742,-22.95703 4.3284,0 9.1369,1.22902 12.416,3.05078 a 3.8001108,3.8001108 0 0 0 0.01,0.004 c 3.8242,2.10988 3.9993,2.4359 4.584,5.24218 l -0.027,-0.15039 c 0.301,1.80591 0.519,3.08219 0.9668,4.3711 0.4479,1.28891 1.2823,2.55573 2.1504,3.42382 2.0722,2.07219 4.7531,3.16993 7.834,3.16993 3.6166,0 6.9029,-1.79919 9.0332,-4.56446 1.7291,-2.22973 2.1152,-5.06539 2.1152,-8.9375 l 0,-12.34765 c 0,-1.88839 -0.017,-3.23377 -0.2304,-4.57032 -0.2103,-1.31413 -0.7523,-2.64273 -1.4121,-3.65039 -2.013,-3.27415 -5.6333,-5.28125 -9.5059,-5.28125 -2.4823,0 -5.0322,1.02546 -7.1387,2.82813 -7.7846,-3.54545 -13.7277,-4.88672 -21.3828,-4.88672 z m 408.0235,0.88281 c -3.5969,0 -6.8239,1.70613 -8.8789,4.41602 -0.8612,1.09141 -1.5746,2.53144 -1.8946,4.02343 -0.3243,1.51235 -0.3769,3.05177 -0.3769,5.06055 l 0,9.13867 -1.3457,0 c -1.96,0 -3.3,0.0142 -4.6368,0.23243 -1.3131,0.21438 -2.6263,0.78236 -3.582,1.4082 -3.3795,2.07544 -5.2832,5.70726 -5.2832,9.50976 0,3.53413 1.5999,6.74247 4.4141,8.87696 1.1401,0.89981 2.6045,1.58466 4.0976,1.89843 1.5122,0.31776 3.0518,0.37305 4.9903,0.37305 l 1.3457,0 0,27.8086 c 0,7.30599 3.2691,13.71829 8.8398,17.875 5.5708,4.1567 13.1876,6.21289 22.1563,6.21289 8.4633,0 20.0758,-2.49275 28.0488,-6.22852 2.9674,-1.32952 5.2261,-2.56694 6.9726,-4.45508 1.7544,-1.89651 2.5899,-4.53845 2.5899,-6.93554 0,-6.01625 -4.728,-11.29688 -10.8555,-11.29688 -2.0777,0 -4.2475,0.64277 -6.9218,2.05859 l 0.049,-0.0254 c -6.0781,3.10654 -12.4709,4.58399 -19.7364,4.58399 -5.0512,0 -8.3018,-1.42034 -8.6074,-1.69531 -0.011,0.002 -0.01,0.0712 -0.064,-0.20118 -0.083,-0.38066 -0.1719,-1.26241 -0.1719,-2.68554 l 0,-25.01563 22.8105,0 c 3.4518,0 5.9294,-0.21154 8.1602,-1.5957 3.4169,-2.06734 5.3418,-5.72463 5.3418,-9.55274 0,-3.61791 -1.7446,-6.81224 -4.3066,-8.94726 a 3.8001108,3.8001108 0 0 0 -0.3926,-0.28516 c -1.0221,-0.65043 -2.3339,-1.27165 -3.7793,-1.5664 -1.4454,-0.29475 -2.9446,-0.35157 -5.0235,-0.35157 l -22.8105,0 0,-9.13867 c 0,-1.95994 -0.014,-3.30018 -0.2324,-4.63672 -0.2145,-1.3129 -0.7828,-2.62511 -1.4082,-3.58007 -2.0746,-3.37814 -5.7054,-5.28321 -9.5078,-5.28321 z m -238.0157,20.72852 c -23.4865,0 -42.1699,16.47842 -42.1699,38.05273 0,21.33309 18.7468,38.05274 41.7285,38.05274 22.9818,0 41.7285,-16.71966 41.7285,-38.05274 0,-21.20324 -18.6898,-38.05273 -41.2871,-38.05273 z m 91.6778,0 c -7.1437,0 -13.0862,1.58266 -18.7637,4.97656 a 3.8001108,3.8001108 0 0 0 -3.7285,-3.06641 l -17.0547,0 c -3.7396,0 -6.1332,0.45788 -8.0195,1.50586 a 3.8001108,3.8001108 0 0 0 -0.1094,0.0645 c -3.4405,2.06425 -5.3731,5.73878 -5.3731,9.58007 0,3.61997 1.7476,6.81311 4.3086,8.94727 a 3.8001108,3.8001108 0 0 0 0.252,0.19336 c 1.0834,0.75838 2.4849,1.3751 3.9473,1.66211 1.0391,0.20395 2.2957,0.21167 3.5488,0.24609 l 0,57.55664 c -1.0618,0.0206 -2.1505,0.0118 -3.0586,0.1543 -1.3151,0.2064 -2.656,0.72113 -3.7149,1.41406 -3.3758,2.07435 -5.2832,5.70236 -5.2832,9.50586 0,3.59836 1.7078,6.8246 4.4161,8.87891 1.1386,0.89839 2.601,1.58195 4.0937,1.89648 1.5121,0.3186 3.053,0.375 4.9922,0.375 l 25.5801,0 c 3.4647,0 5.9506,-0.20619 8.1894,-1.60547 a 3.8001108,3.8001108 0 0 0 0.094,-0.0605 c 3.1787,-2.11926 5.2187,-5.64501 5.2187,-9.48438 0,-3.4596 -1.5773,-6.85102 -4.4218,-9.03906 a 3.8001108,3.8001108 0 0 0 -0.1368,-0.10156 c -1.084,-0.75882 -2.4846,-1.37519 -3.9472,-1.66211 -1.4626,-0.28693 -2.9878,-0.34571 -4.9961,-0.34571 l -4.7266,0 0,-14.25 c 5.9691,3.37136 12.0051,4.94141 18.9863,4.94141 22.0933,0 39.377,-15.05579 39.377,-35.25977 0,-21.00687 -17.3331,-37.02343 -39.6699,-37.02343 z m 81.8867,0 c -9.4224,0 -17.6945,2.19599 -23.8613,6.29297 -6.1668,4.09698 -10.2227,10.40434 -10.2227,17.64648 0,6.75296 2.9563,12.73217 8.584,16.52734 0.9088,0.61288 1.9732,1.10881 3,1.63282 -1.0079,-0.26766 -2.0357,-0.4961 -3.0801,-0.4961 -3.5095,0 -6.9483,1.71827 -9.0508,4.60352 -0.8136,1.04121 -1.5428,2.43958 -1.8652,3.91601 -0.3305,1.51364 -0.3809,3.05024 -0.3809,5.12891 l 0,4.85156 c 0,3.73953 0.457,6.13365 1.5059,8.02149 a 3.8001108,3.8001108 0 0 0 0.1,0.16797 c 2.1342,3.41474 5.9203,5.3125 9.6914,5.3125 1.6974,0 3.3798,-0.5837 4.957,-1.39063 6.1881,2.56411 13.4842,3.89063 21.5059,3.89063 10.0616,0 18.9162,-2.25611 25.5313,-6.42969 6.615,-4.17359 11.0507,-10.61827 11.0507,-18.09766 0,-7.92252 -4.4391,-15.23394 -11.5898,-19.45703 2.471,-0.59737 4.6537,-2.00992 6.3008,-3.98633 a 3.8001108,3.8001108 0 0 0 0.1933,-0.25195 c 0.7583,-1.08335 1.3751,-2.48492 1.6621,-3.94727 0.287,-1.46234 0.3457,-2.98582 0.3457,-4.99414 l 0,-5.43945 c 0,-3.79404 -0.5288,-7.00429 -2.4062,-9.60937 -1.8774,-2.60509 -5.1569,-3.89258 -8.3008,-3.89258 -1.6936,0 -3.6479,0.51772 -5.1211,1.70312 -0.4528,0.36435 -0.7661,0.81725 -1.1211,1.24414 -5.3644,-1.98528 -11.0562,-2.94726 -17.4277,-2.94726 z m 240.2148,0 c -23.8763,0 -41.4336,16.63873 -41.4336,39.52148 0,9.83958 3.4809,18.73088 10.0782,25.32813 a 3.8001108,3.8001108 0 0 0 0.029,0.0273 c 7.9523,7.79002 18.4276,11.22852 33.2363,11.22852 11.1485,0 20.9463,-1.72708 27.8359,-5.08789 a 3.8001108,3.8001108 0 0 0 0.066,-0.0332 c 6.6472,-3.40466 11.4746,-8.05243 11.4746,-14.11523 0,-6.19772 -5.0241,-11.29492 -11.1503,-11.29492 -2.6079,0 -5.1422,1.12849 -6.9356,2.72265 l 0.1387,-0.11523 c -3.8206,3.08584 -3.5938,3.09487 -6.1074,3.88867 a 3.8001108,3.8001108 0 0 0 -0.057,0.0176 c -2.7476,0.91587 -8.6729,1.71875 -14.2363,1.71875 -8.1563,0 -13.8655,-1.50279 -17.211,-3.83789 -3.3454,-2.3351 -4.8632,-5.33095 -4.8632,-10.44727 0,-4.65302 1.7049,-8.94904 4.7695,-12.01367 a 3.8001108,3.8001108 0 0 0 0.047,-0.0488 c 3.3789,-3.49958 7.5157,-5.16015 14.3183,-5.16015 5.9145,0 10.491,1.2385 13.5215,3.08398 1.2266,0.84651 1.2812,0.86914 1.7344,2.9082 a 3.8001108,3.8001108 0 0 0 0,0.0176 c 0.3752,1.65114 0.6265,2.80654 1.1445,4.02539 0.4724,1.11134 1.3637,2.19215 2.2383,2.92383 2.1586,2.08468 4.807,3.06445 7.8203,3.06445 3.6126,0 6.8982,-1.79483 9.0293,-4.55859 0.8248,-1.06204 1.4799,-2.49278 1.7715,-3.95313 0.292,-1.46242 0.3477,-2.98194 0.3477,-4.99023 l 0,-11.31836 c 0,-3.79431 -0.5302,-7.02101 -2.4434,-9.63281 -1.9132,-2.61181 -5.2187,-3.86914 -8.4121,-3.86914 -2.0864,0 -4.2703,0.50711 -5.9863,1.87304 -0.5354,0.42615 -0.883,0.98302 -1.2832,1.50391 -5.6728,-2.24178 -12.1584,-3.37695 -19.4864,-3.37695 z m 168.5352,0 c -9.4224,0 -17.693,2.19591 -23.8594,6.29297 -6.1663,4.09706 -10.2226,10.40455 -10.2226,17.64648 0,6.75296 2.9563,12.73217 8.5839,16.52734 0.9088,0.61288 1.9733,1.10881 3,1.63282 -1.0084,-0.26799 -2.037,-0.4961 -3.082,-0.4961 -3.5095,0 -6.9483,1.71827 -9.0508,4.60352 -0.8141,1.04199 -1.5435,2.44169 -1.8652,3.91797 -0.3298,1.51344 -0.3789,3.04888 -0.3789,5.12695 l 0,4.85156 c 0,3.73961 0.4572,6.13385 1.5059,8.02149 a 3.8001108,3.8001108 0 0 0 0.1,0.16797 c 2.1334,3.4135 5.9183,5.3125 9.6894,5.3125 1.6974,0 3.3798,-0.5837 4.957,-1.39063 6.1881,2.56411 13.4842,3.89063 21.5059,3.89063 10.0616,0 18.9162,-2.25611 25.5313,-6.42969 6.615,-4.17359 11.0507,-10.61827 11.0507,-18.09766 0,-7.92252 -4.4391,-15.23394 -11.5898,-19.45703 2.471,-0.59737 4.6537,-2.00992 6.3008,-3.98633 a 3.8001108,3.8001108 0 0 0 0.1933,-0.25195 c 0.7577,-1.0824 1.3744,-2.48275 1.6621,-3.94531 0.2878,-1.46256 0.3477,-2.98711 0.3477,-4.9961 l 0,-5.43945 c 0,-3.79442 -0.5301,-7.00452 -2.4082,-9.60937 -1.8781,-2.60486 -5.1569,-3.89258 -8.3008,-3.89258 -1.6936,0 -3.6479,0.51772 -5.1211,1.70312 -0.4528,0.36435 -0.7661,0.81725 -1.1211,1.24414 -5.3644,-1.98528 -11.0562,-2.94726 -17.4277,-2.94726 z m -266.9727,1.91015 c -1.9599,0 -3.3351,0.0163 -4.6875,0.22852 -1.3298,0.20864 -2.6717,0.75413 -3.6797,1.41406 -3.3779,2.0757 -5.2812,5.7062 -5.2812,9.50781 0,3.52189 1.7139,6.77363 4.5137,8.82032 1.1544,0.97645 2.6303,1.65319 4.1015,1.95703 1.5298,0.31592 3.0947,0.37109 5.0332,0.37109 l 7.668,0 0,27.24414 -14.1367,0 c -1.9599,0 -3.3,0.0142 -4.6367,0.23242 -1.3131,0.21439 -2.6264,0.78235 -3.5821,1.40821 -3.3795,2.07547 -5.2832,5.70735 -5.2832,9.50976 0,3.5366 1.7261,6.8012 4.543,8.84571 2.398,2.005 5.3247,2.30273 8.959,2.30273 l 50.5723,0 c 3.3203,0 5.7108,-0.18774 8.0585,-1.5293 a 3.8001108,3.8001108 0 0 0 0.2227,-0.13672 c 3.1767,-2.11782 5.2207,-5.64112 5.2207,-9.48242 0,-3.61953 -1.8013,-6.90901 -4.5703,-9.03906 a 3.8001108,3.8001108 0 0 0 -0.1367,-0.10156 c -0.9852,-0.68961 -2.331,-1.35366 -3.7774,-1.6543 -1.4464,-0.30063 -2.9387,-0.35547 -5.0175,-0.35547 l -14.1368,0 0,-45.74414 a 3.8001108,3.8001108 0 0 0 -3.7988,-3.79883 l -26.168,0 z M 1539.75,890.85352 c 11.0722,0 19.1348,7.23687 19.1348,15.7539 0,8.69579 -7.9944,15.75391 -19.4278,15.75391 -11.4332,0 -19.4297,-7.05858 -19.4297,-15.75391 0,-8.87325 7.9312,-15.7539 19.7227,-15.7539 z m 91.2383,0 c 5.4713,0 9.3571,1.14766 12.3847,3.47656 a 3.8001108,3.8001108 0 0 0 0.088,0.0664 c 3.1851,2.30645 5.4864,6.90593 5.4864,10.29883 0,4.02363 -1.6622,7.24247 -4.7305,9.72657 -3.0683,2.48409 -7.6435,4.11718 -13.2285,4.11718 -5.7489,0 -10.3477,-1.63782 -13.4043,-4.12695 -3.0566,-2.48913 -4.7012,-5.73245 -4.7012,-9.86328 0,-3.20032 2.3015,-7.84602 5.4863,-10.15235 a 3.8001108,3.8001108 0 0 0 0.088,-0.0664 c 3.0278,-2.32902 6.8996,-3.47656 12.5313,-3.47656 z m 82.916,0 c 5.2995,0 9.0409,1.0389 12.3047,3.18359 l 0.2363,0.42383 c 0.3742,0.68598 0.8645,1.26943 1.3379,1.86718 -3.3247,-0.79366 -6.9302,-1.5162 -11.7598,-2.16015 l 0.027,0.002 c -8.6088,-1.21061 -9.5452,-1.36172 -11.0977,-1.89062 0.062,-0.0232 0.064,-0.0397 0.1289,-0.0625 2.1812,-0.77134 5.4955,-1.36328 8.8223,-1.36328 z m 408.75,0 c 5.3014,0 9.044,1.03919 12.3086,3.18554 l 0.2344,0.42188 c 4e-4,8.1e-4 0,0.001 0,0.002 0.3738,0.68489 0.8632,1.26826 1.336,1.86523 -3.3251,-0.79382 -6.9314,-1.5161 -11.7618,-2.16015 l 0.027,0.002 c -8.6083,-1.21053 -9.5432,-1.36164 -11.0957,-1.89062 0.062,-0.0232 0.064,-0.0397 0.1289,-0.0625 2.1805,-0.77127 5.4935,-1.36328 8.8203,-1.36328 z m -383.9961,9.33007 0.053,0.0293 c -0.011,-0.006 -0.024,-0.0114 -0.035,-0.0176 -0.01,-0.003 -0.011,-0.008 -0.018,-0.0117 z m 408.75,0 0.053,0.0293 c -0.011,-0.006 -0.024,-0.0114 -0.035,-0.0176 -0.01,-0.003 -0.011,-0.008 -0.018,-0.0117 z m -44.7969,11.80664 c 4.8801,1.93439 10.827,3.19373 18.1699,3.98047 l -0.016,0 c 7.8617,0.87352 10.5432,1.43219 12.4961,2.23633 a 3.8001108,3.8001108 0 0 0 0.094,0.0371 c 1.0957,0.41742 1.7316,0.97004 2.0957,1.3418 -0.4543,0.32154 -1.07,0.72449 -2.1348,1.11914 -2.5503,0.9452 -6.5001,1.65625 -10.8086,1.65625 -6.989,0 -11.9338,-1.62009 -15.3086,-4.39063 -0.7813,-2.051 -1.7931,-3.92208 -3.3926,-5.30664 -0.3499,-0.30294 -0.8074,-0.42702 -1.1953,-0.67383 z m -408.7461,0.002 c 4.8792,1.9331 10.8239,3.19206 18.1641,3.97851 l -0.016,0 c 7.8617,0.87353 10.5458,1.43245 12.498,2.23633 a 3.8001108,3.8001108 0 0 0 0.094,0.0371 c 1.0966,0.41777 1.7323,0.97033 2.0957,1.3418 -0.454,0.32153 -1.0714,0.72424 -2.1367,1.11914 -2.5497,0.94513 -6.4982,1.65625 -10.8067,1.65625 -6.989,0 -11.9338,-1.62009 -15.3086,-4.39063 -0.7813,-2.051 -1.7931,-3.92208 -3.3926,-5.30664 -0.3488,-0.30197 -0.8049,-0.42568 -1.1914,-0.67187 z"
       id="path5410"
       style="color:#000000;font-style:normal;font-variant:normal;font-weight:bold;font-stretch:normal;font-size:147.01268005px;line-height:125%;font-family:Courier;-inkscape-font-specification:'Courier Bold';letter-spacing:0px;word-spacing:0px;clip-rule:nonzero;display:inline;overflow:visible;visibility:visible;opacity:1;isolation:auto;mix-blend-mode:normal;color-interpolation:sRGB;color-interpolation-filters:linearRGB;solid-color:#000000;solid-opacity:1;fill:#debc87;fill-opacity:1;fill-rule:evenodd;stroke:#63420e;stroke-width:6;stroke-linecap:round;stroke-linejoin:miter;stroke-miterlimit:4;stroke-dasharray:none;stroke-dashoffset:0;stroke-opacity:1;color-rendering:auto;image-rendering:auto;shape-rendering:auto;text-rendering:auto;enable-background:accumulate" />
  </g>
</svg>
