<?xml version="1.0" encoding="UTF-8" standalone="no"?>
<svg
   xmlns:dc="http://purl.org/dc/elements/1.1/"
   xmlns:cc="http://creativecommons.org/ns#"
   xmlns:rdf="http://www.w3.org/1999/02/22-rdf-syntax-ns#"
   xmlns:svg="http://www.w3.org/2000/svg"
   xmlns="http://www.w3.org/2000/svg"
   version="1.1"
   id="svg2"
   viewBox="0 0 851.11025 445.46011"
   height="125.71874mm"
   width="240.20222mm">
  <defs
     id="defs4" />
  <metadata
     id="metadata7">
    <rdf:RDF>
      <cc:Work
         rdf:about="">
        <dc:format>image/svg+xml</dc:format>
        <dc:type
           rdf:resource="http://purl.org/dc/dcmitype/StillImage" />
        <dc:title></dc:title>
      </cc:Work>
    </rdf:RDF>
  </metadata>
  <g
     transform="translate(-1199.481,-565.30693)"
     id="layer1">
    <g
       transform="matrix(0.99763088,0.06879411,-0.06879411,0.99763088,52.331014,-114.1932)"
       id="g4199">
      <g
         id="g4426"
         transform="translate(1185.7143,317.14286)">
        <path
           style="fill:#d2ad94;fill-opacity:1"
           d="m 1653.252,596.05078 c -2.3466,-0.005 -4.7198,-10e-4 -7.1094,0.0117 -7.2971,0.04 -12.7683,0.0802 -17.334,0.17188 -7.624,0.67246 -15.0995,1.95858 -22.3066,4.23632 -1.2608,0.77687 -2.6011,1.67852 -4.209,2.76758 -2.9428,1.99309 -6.1154,3.62305 -7.0508,3.62305 -0.9354,0 -4.3895,1.74675 -7.6738,3.88086 -3.2844,2.13411 -16.5351,9.20664 -29.4473,15.71679 -6.2629,3.15766 -10.7897,5.46813 -14.4043,7.39649 -5.7421,3.64369 -11.3253,7.50685 -16.6895,11.66015 -0.2988,0.28025 -0.5586,0.51326 -0.875,0.8125 -4.6708,4.41824 -9.1321,8.93321 -9.914,10.03321 -0.7819,1.1 -6.6777,7.175 -13.1016,13.5 -8.5762,8.44423 -13.3739,13.70678 -15.7109,17.61914 -0.6838,3.41015 -0.5712,6.90374 -0.582,10.16406 0.5851,1.24394 1.3106,2.45529 2.0253,3.30469 l 1.9942,4.20117 8.082,-1.68555 c 2.6516,-0.53033 3.3144,-0.76124 3.5547,-0.76953 0.4005,-0.0138 -0.3736,0.59266 4.9297,1.47657 8.4853,1.41421 0.7074,10e-4 -2.8281,7.07226 -8.3602,20.07342 -0.1613,38.52447 21.7187,49.19336 l -14.0254,5.42383 c 2.827,0 2.3665,5.06774 -1.5078,16.57226 -1.713,5.08674 -2.8939,9.3402 -3.5508,12.98633 0,7.56901 1.2273,14.55317 4.8789,18.90039 3.2624,2.81661 8.104,4.40187 12.9121,4.45313 3.068,-0.31206 6.6246,-1.24217 10.7383,-2.91211 0.021,0.10755 0.045,0.20606 0.066,0.3125 0.4059,-0.14522 0.8602,-0.3125 0.9336,-0.3125 0.2079,0 0.377,2.1894 0.377,4.86523 0,0.19077 0.012,0.37517 0.02,0.5625 2e-4,6e-4 -2e-4,10e-4 0,0.002 8.1868,24.47167 33.3336,7.61364 45.1211,-12.4961 1.607,-5.0538 2.8594,-10.6963 2.8594,-13.53125 0,-1.74852 0.8009,-4.16865 1.7793,-5.37695 0.5887,-0.72709 0.9919,-1.20747 1.5469,-1.47266 0,-0.0795 0,-0.1611 -0.01,-0.24023 0.15,0.0384 0.2595,0.0606 0.4062,0.0977 1.14,-0.30111 3.007,0.0739 7.5567,1.01368 1.1282,0.23303 2.2825,0.50624 3.4472,0.80078 0.4206,-0.0399 0.7136,-0.12188 0.9161,-0.23242 -1.485,-0.75038 -3.0327,-1.53757 -4.25,-2.13477 -2.3661,-1.16071 -4.1178,-2.03041 -4.5782,-2.4043 -0.4603,-0.37388 0.3706,-0.25167 3.1719,0.57422 5.4223,1.59861 18.783,6.02018 43.8828,14.38477 0.1109,0.14213 0.2598,0.30985 0.4414,0.49609 54.5433,13.63167 100.4417,29.95512 143.127,59.88086 52.3709,-9.93996 97.17,-43.98031 80.5761,-72.03125 -9.2577,-12.0656 -16.958,-25.27589 -22.164,-40.19922 -4.9908,-13.09103 -19.9068,-31.8154 -20.0215,-43.46875 l -1.7715,-4.16015 2.2891,-0.8711 -4.8496,-0.45703 -13.086,-32.71484 1.084,-1.88867 -0.076,-0.18946 c -0.3076,0.0615 -0.6142,0.12818 -0.9218,0.18946 -4.4045,-6.39201 -5.8692,-11.40555 -5.1934,-15.41016 l -2.0703,-5.1543 -1.7793,-0.87304 -13.375,-27.49024 1.834,-2.22266 -1.1485,0.0508 c -0.276,0.0838 -0.552,0.16821 -0.8281,0.25195 -8.5676,-7.66208 -18.5378,-11.40734 -29.166,-13.25 -5.4996,-0.63332 -12.0844,-1.04323 -20.2695,-1.32617 -3.3195,-0.11475 -7.323,-0.30098 -11.4785,-0.50977 -10.6133,-0.042 -21.1824,-0.10113 -31.0606,-1.90625 -8.191,-0.0509 -16.5769,-0.49661 -24.9922,-0.87695 -3.5324,-0.0504 -7.1457,-0.0842 -10.8593,-0.0918 z m -48.8848,67.4961 c 0.034,0.003 0.056,0.008 0.09,0.0117 0.3037,-0.005 0.5943,-0.0231 0.9102,-0.0117 3.5953,0.1294 7.7754,1.25722 7.7754,2.43164 0,0.29066 -3.2796,1.57658 -7.9219,3.1914 -4.9229,2.38579 -12.9695,4.84419 -18.7988,5.99024 -3.4709,1.02701 -5.9335,1.70117 -6.3184,1.70117 -1.0303,0 -1.0275,-0.4804 -0.3613,-1.23633 -1.4196,-0.59693 0.6972,-2.60647 9.3965,-6.81445 4.8188,-2.20983 9.72,-5.39508 15.2285,-5.26367 z"
           transform="translate(-1185.7143,-317.14286)"
           id="path4436" />
        <path
           style="fill:#cb8f74"
           d="m 1627.8438,597.4043 c -16.4084,0.15365 -18.3471,1.39286 -24.293,6.12109 -3.835,3.04959 -8.8853,6.04936 -18.4082,10.93164 -8.0512,4.12775 -34.3109,16.8572 -42,20.35938 -6.3722,2.90237 -9.1541,5.0809 -18.5,14.48828 -13.2816,13.36892 -22.1461,22.74704 -27.0684,28.63867 -2.6448,3.40172 -11.682,16.52876 -10.6367,17.58815 0.6928,0.69282 -3.4566,2.53514 0.1741,1.25218 5.183,-1.83148 -1.2202,1.58507 1.0541,2.99065 2.0037,1.23833 5.0922,2.35494 2.4438,4.43816 -4.9457,3.89024 8.1501,-0.98434 2.9452,-3.28672 -5.7955,-2.56362 -5.873,-2.56041 -3.9688,0.1582 1.2636,1.80393 1.7151,3.02828 1.2657,4.04102 l 0.012,0.0254 8.082,-1.68555 c 2.6516,-0.53033 3.3144,-0.76124 3.5547,-0.76953 0.4005,-0.0138 -0.3736,0.59266 4.9297,1.47657 8.4853,1.41421 0.7074,0.001 -2.8281,7.07226 -2.7405,6.58014 -3.6915,12.98355 -2.9746,18.99805 0.069,0.0444 0.1578,0.0815 0.2226,0.12695 2.0029,1.40286 2.1744,1.35116 2.4727,-0.74023 0.5082,-3.56353 3.0899,-3.05905 6,1.16992 3.0091,4.37301 13.6559,12.0625 16.6992,12.0625 1.1092,0 2.2668,0.88379 2.6211,2 0.8684,2.73608 1.9873,2.52053 5.3965,-1.04688 1.6662,-1.74352 4.0916,-3.13488 5.666,-3.25 2.4581,-0.17974 2.9391,0.32942 4.4922,4.75586 2.0276,5.7793 5.3249,8.89403 8.7246,8.24414 1.7831,-0.34086 2.583,0.11726 3.2461,1.86133 0.7654,2.01335 4.7581,5.19062 5.3632,4.26758 0.1194,-0.18206 1.0195,-1.61089 2,-3.17578 1.599,-2.55184 2.1577,-2.77559 5.4278,-2.16211 5.3657,1.00662 7.1836,2.28145 7.1836,5.04101 0,3.02731 1.6446,3.1489 4.6347,0.33985 2.6654,-2.504 5.077,-1.93194 5.5372,1.31445 0.2357,1.66364 0.9584,2.28962 2.5781,2.23242 1.2448,-0.0439 2.25,0.5145 2.25,1.25 0,1.69973 1.0046,1.63994 3.4414,-0.20312 3.0491,-2.30622 4.5586,-1.79947 4.5586,1.53125 0,2.7521 0.2847,3 3.4414,3 1.8925,0 3.7166,0.44635 4.0527,0.99023 0.3761,0.60852 1.5241,0.38973 2.9863,-0.56836 2.2151,-1.45135 2.4507,-1.41607 3.4825,0.51172 0.6214,1.16112 2.1064,2.06641 3.3847,2.06641 1.3702,0 3.1594,1.19457 4.4942,3 1.2199,1.65 3.1039,3 4.1875,3 1.3034,0 1.9707,0.6768 1.9707,2 0,1.1 0.45,2.0562 1,2.125 2.0929,0.26162 2.6006,0.43862 6.25,2.17969 2.0625,0.984 3.75,2.1669 3.75,2.62695 0,0.46004 0.9331,1.08049 2.0742,1.37891 1.7324,0.45303 1.8974,0.87391 1,2.55078 -1.3345,2.4935 -1.3493,3.13867 -0.074,3.13867 0.55,0 1,-0.62643 1,-1.39258 0,-1.61907 2.6888,-2.91998 3.459,-1.67383 0.5745,0.92962 -5.6856,6.06641 -7.3926,6.06641 -0.9862,0 -1.1937,0.41348 -1.4668,2.91797 0,0.0214 0.01,0.0514 0.016,0.0781 0.526,0.17526 0.7172,0.23716 1.2539,0.41602 1.8102,2.32137 13.4766,10.82714 21.6309,15.65234 4.3098,2.55027 8.3451,5.91986 10.5,8.76953 2.4813,3.73561 5.19,7.15731 8.0898,10.29492 0.5902,0.62095 1.1903,1.26359 1.7578,1.84375 0.01,0.009 0.017,0.0185 0.025,0.0273 59.0146,59.8594 192.5627,6.5563 185.3692,-39.42774 -3.3885,-3.53656 -6.0155,-6.47842 -7.5313,-8.51171 -3.9122,-5.24789 -15.801,-28.18982 -21.0195,-40.56055 -1.3921,-3.3 -6.1533,-13.25223 -10.5801,-22.11719 -9.056,-18.13503 -11.4159,-24.95797 -9.123,-26.375 0.1539,-0.0952 0.2368,-0.16214 0.3379,-0.23437 l -1.8301,-0.17188 -13.086,-32.71484 0.6934,-1.20899 c -2.4371,-0.33146 -3.0171,-1.35436 -5.9316,-8.13281 -1.8814,-4.3754 -3.4781,-9.30268 -3.5469,-10.94922 l -0.125,-2.99219 0.025,-0.008 -0.072,-0.0352 -13.375,-27.49024 1.834,-2.22266 -1.2598,0.0547 -0.027,-0.0254 c -2.3994,0.17385 -3.7123,-0.41486 -6.4121,-2.58398 -10.0093,-8.04186 -15.6562,-9.29495 -46.5879,-10.33594 -14.2318,-0.47897 -30.2068,-1.3348 -35.5,-1.90039 -5.2933,-0.56558 -24.8723,-1.19268 -43.5078,-1.39453 -9.3692,-0.10148 -16.4466,-0.17036 -21.916,-0.11914 z m -24.045,65.45703 c 3.2398,0 10.3438,2.33412 10.3438,3.39844 0,0.27513 -7.7625,2.95631 -17.25,5.95703 -22.0518,6.97456 -21.75,6.88787 -21.75,6.18164 0,-3.32414 22.5252,-15.53711 28.6562,-15.53711 z m -98.9121,76.92773 c -0.1769,-0.004 -0.3532,0.0248 -0.5332,0.0684 2.657,5.74852 7.0744,10.94016 13.1426,15.33008 1.0376,-0.49314 1.5803,-0.95493 1.4336,-1.32422 -0.1582,-0.39834 -3.2277,-3.88597 -6.8223,-7.75195 -4.4283,-4.76259 -5.8759,-6.29053 -7.2207,-6.32227 z m 25.0039,9.83203 c -0.7066,0.0199 -1.593,0.1768 -2.6816,0.45313 -4.7748,1.21198 -5.0745,2.17188 -1.3164,4.22851 3.411,1.86671 5.6215,1.5911 6.0742,-0.75976 0.5421,-2.81508 0.044,-3.98142 -2.0762,-3.92188 z m -7.9258,7.67774 c -0.1298,-0.004 -0.2377,0.007 -0.3222,0.0312 -0.1527,0.0435 -0.4851,0.12893 -0.6602,0.17773 1.6792,1.03004 3.454,2.0111 5.3379,2.92969 l -13.0215,5.03516 c 1.0059,0.65074 0.8438,2.0633 0.8438,4.32226 0,3.02123 -1.1795,8.13009 -3.0449,13.18946 -3.5608,9.65715 -4.7137,20.34507 -2.5059,23.22656 5.3221,10.45831 13.2416,10.61203 17.0312,10.65039 1.3639,0 4.3071,-0.73115 6.5411,-1.625 2.2339,-0.89385 4.32,-1.36551 4.6367,-1.04883 0.3167,0.31668 0.8068,2.61601 1.0879,5.10938 1.6126,16.29195 23.3561,14.48736 34.7031,2.24804 4.3448,-4.34486 5.7701,-6.65268 7.4277,-12.01953 1.1283,-3.65292 2.3511,-9.00889 2.7168,-11.90234 0.3657,-2.89346 1.2812,-6.77816 2.0352,-8.63282 0.754,-1.85467 1.3711,-3.53587 1.3711,-3.73632 0,-0.70249 -7.0529,-3.30149 -14.7403,-5.43164 -4.8695,-1.34932 -15.208,-6.04514 -27.7597,-12.60743 -12.6693,-6.62374 -19.7307,-9.85549 -21.6778,-9.91601 z"
           transform="translate(-1185.7143,-317.14286)"
           id="path4434" />
        <path
           style="fill:#975228"
           d="m 378.42858,495.18522 c -5.80089,-4.62469 -9.81584,-5.59761 -12.04005,-2.9176 -0.70672,0.85154 -2.22432,1.41404 -3.37244,1.25 -2.05021,-0.29293 -2.59763,-2.77752 -1.49781,-6.79826 0.44739,-1.6356 -2.18286,-1.86272 -5.48247,-0.47341 -1.75509,0.73899 -1.85485,0.4033 -1.37138,-4.61481 0.584,-6.06158 -0.44982,-9.91178 -2.66141,-9.91178 -0.81128,0 -1.91136,0.77962 -2.44461,1.73249 -0.88004,1.57254 -1.20061,1.48319 -3.47208,-0.96777 -1.37638,-1.48515 -2.82306,-3.72727 -3.21483,-4.98249 -0.39178,-1.25523 -1.3267,-3.16986 -2.07762,-4.25474 -0.75091,-1.08487 -1.3653,-2.72715 -1.3653,-3.64951 0,-1.93793 -6.32445,-11.66352 -8.72716,-13.42043 -1.40215,-1.02527 -1.11556,-1.35435 2.10513,-2.41728 4.79405,-1.58218 7.21074,-0.91737 15.95456,4.38896 8.81558,5.34987 31.16217,17.14073 35.62733,18.10403 1.80957,0.39039 5.69971,1.60506 8.64475,2.69926 l 5.35461,1.98946 -0.69444,6.48462 c -1.48299,13.848 -6.04292,24.42705 -10.43909,24.21873 -0.86663,-0.0411 -5.80069,-4.04782 -8.82569,-6.45947 z m -340.23155,1.36569 c 0.581102,-0.5811 1.646819,-0.85979 2.36826,-0.61931 0.748946,0.24965 0.295653,0.70294 -1.056551,1.05655 -1.663345,0.43497 -2.053777,0.30483 -1.311709,-0.43724 z m 9.275128,-2.15112 c 1.520705,-1.68113 29.41869,-8.88022 163.456422,-42.18002 54.45,-13.52735 100.87792,-25.29678 103.17315,-26.1543 4.87199,-1.82022 5.09873,-1.72579 8.84838,3.68496 3.25816,4.70153 2.80369,5.43914 -4.00107,6.49385 -6.0104,0.93158 -15.52046,3.80947 -15.52046,4.69671 0,0.42811 -0.81,0.77837 -1.8,0.77837 -0.99,0 -2.2275,0.38961 -2.75,0.86581 -1.03282,0.94129 -13.60582,3.7546 -45.45,10.16983 -11.275,2.27142 -26.35,5.61563 -33.5,7.43157 -13.91535,3.53418 -18.48187,4.34215 -28.72822,5.08295 -11.31619,0.81816 -61.57006,11.69936 -98.77178,21.38653 -4.125,1.07413 -14.925,3.13448 -24,4.57856 -9.075,1.44408 -17.625,2.88221 -19,3.19585 -1.375,0.31364 -2.25539,0.29984 -1.956422,-0.0307 z M 19.42858,484.33599 c 0,-0.21085 0.900621,-0.61888 2.00138,-0.90674 1.100759,-0.28785 1.749201,-0.11534 1.440983,0.38337 -0.538251,0.87091 -3.442363,1.31244 -3.442363,0.52337 z m 12,-4.49904 c 3.680066,-2.01569 100.82512,-34.07123 147,-48.50648 41.79238,-13.06518 66.57185,-20.72319 76,-23.48751 22.89679,-6.71333 50.40011,-16.14816 52.39413,-17.97347 1.41268,-1.29315 4.08089,-2.08313 8.10587,-2.39989 3.3,-0.25971 6.7875,-0.8079 7.75,-1.21821 2.65456,-1.13161 2.12722,0.50153 -2,6.19387 -2.0625,2.84464 -4.65,6.63385 -5.75,8.42046 -1.57027,2.55042 -3.28919,3.63661 -8,5.05525 -6.57623,1.98039 -62.63757,16.31363 -71.57103,18.2986 -3.06407,0.68082 -6.46708,1.71741 -7.56226,2.30353 -2.06411,1.10468 -18.50382,6.01951 -35.86671,10.72274 -5.5,1.48983 -14.725,4.03227 -20.5,5.64986 -5.775,1.6176 -13.01611,3.51899 -16.09136,4.22531 -3.07524,0.70632 -6.11429,1.60742 -6.75344,2.00243 -0.63914,0.39501 -5.09803,1.77233 -9.90864,3.06069 -4.81061,1.28837 -12.12156,3.33908 -16.24656,4.55713 -8.56035,2.52774 -46.976649,12.65724 -51.5,13.57937 -1.65,0.33637 -7.275,1.87671 -12.5,3.42299 -20.701564,6.12639 -31.516315,8.56705 -27,6.09333 z m 442,-70.13668 c -5.775,-1.05298 -12.525,-2.62998 -15,-3.50445 -2.475,-0.87448 -7.425,-2.40879 -11,-3.4096 -3.575,-1.0008 -8.3,-2.5131 -10.5,-3.36067 -19.54876,-7.5313 -25.83048,-9.70619 -28.03429,-9.70619 -1.40839,0 -8.05183,-1.59983 -14.76321,-3.55518 -17.04713,-4.96665 -29.97017,-6.7922 -39.09634,-5.52287 -3.94595,0.54883 -10.45034,0.72324 -14.4542,0.38757 -9.07523,-0.76083 -9.52453,-0.2109 12.03006,-14.72475 5.32512,-3.58568 10.05012,-7.12747 10.5,-7.87064 0.44989,-0.74317 3.3308,-3.00206 6.40202,-5.01975 3.92749,-2.58024 6.39343,-5.15565 8.31241,-8.68146 2.64394,-4.85778 2.86613,-5.01292 7.17953,-5.01292 2.44814,0 5.33582,0.55248 6.41707,1.22773 1.59764,0.99774 2.4849,0.92954 4.73643,-0.36411 1.52378,-0.87551 4.08501,-1.90588 5.6916,-2.28972 1.60659,-0.38383 4.02978,-1.56998 5.38486,-2.63589 1.35508,-1.06591 3.26373,-1.93801 4.24145,-1.93801 0.97773,0 6.54204,-2.46498 12.36514,-5.47774 5.82311,-3.01275 10.58747,-5.24692 10.58747,-4.96481 0,0.2821 0.94246,0.009 2.09435,-0.60794 1.71742,-0.91914 2.4939,-0.7455 4.31445,0.96481 2.37612,2.23225 5.08426,2.71494 6.0912,1.08568 0.99089,-1.60329 3.35687,-1.1657 6.57949,1.21689 2.61291,1.93181 4.11868,2.19408 11.7095,2.03955 9.82438,-0.2 18.45132,-1.50173 28.71101,-4.33226 3.85,-1.06217 10.81978,-2.84095 15.48841,-3.95284 4.98292,-1.18675 10.89739,-3.45665 14.32167,-5.49649 3.20829,-1.91117 6.25101,-3.47485 6.76159,-3.47485 1.4598,0 1.08458,2.62544 -0.57167,4 -2.31311,1.91971 -1.86434,3.89547 0.75,3.30197 2.06016,-0.4677 13.77456,-4.02069 37.25,-11.29796 4.95,-1.53448 13.5,-4.0249 19,-5.53427 5.5,-1.50937 25.975,-7.61266 45.5,-13.56287 40.55204,-12.35815 53.49519,-16.37898 129.5,-40.22957 48.80945,-15.31659 55.31541,-17.08244 58.16073,-15.78602 2.80545,1.27825 6.89961,9.42979 7.89917,15.72739 l 0.65372,4.11867 -3.78193,0.7095 c -4.53362,0.85051 -11.70131,3.61688 -11.05248,4.2657 0.2542,0.2542 3.02098,-0.069 6.14839,-0.71827 7.26555,-1.50832 9.15304,-0.22036 5.30959,3.62308 -3.29949,3.29949 -17.22564,7.7107 -103.83719,32.89117 -36.575,10.6334 -76.80562,22.33053 -89.40138,25.99361 -12.59576,3.66309 -26.09576,8.13078 -30,9.92822 -3.90424,1.79743 -7.88612,3.54679 -8.84862,3.88747 -0.9625,0.34068 -1.75,1.05344 -1.75,1.58391 0,0.53048 -1.2375,0.94719 -2.75,0.92602 -4.44464,-0.0622 -7.16964,1.50013 -9.01753,5.17001 -1.9345,3.84187 -6.24913,5.96889 -21.45758,10.57812 -8.37732,2.53891 -8.92541,2.88889 -13.75,8.78 -2.76369,3.37463 -5.02489,6.47508 -5.02489,6.8899 0,1.79754 4.20658,0.51173 7.34722,-2.24578 1.87924,-1.65 3.90953,-3 4.51174,-3 0.60221,0 1.83206,-1.125 2.733,-2.5 0.90093,-1.375 2.49595,-2.5 3.54449,-2.5 1.0631,0 2.41031,1.1059 3.0455,2.5 1.46854,3.22308 2.70884,3.1855 18.99788,-0.57559 7.32609,-1.69157 20.52017,-4.1159 29.32017,-5.3874 17.25072,-2.49254 44.20206,-8.86535 148,-34.99551 80.29233,-20.21284 85.58513,-21.36908 89.13125,-19.47126 3.7507,2.00732 8.88244,13.56246 9.60068,21.61788 0.5171,5.79945 0.37485,6.15408 -3.44249,8.58219 -7.24462,4.6081 -25.48248,9.07823 -151.78944,37.20382 -47.70928,10.62374 -80.86391,18.85775 -91.43034,22.70687 -11.21991,4.08718 -36.16967,11.819 -38.13864,11.819 -0.89582,0 -3.04677,0.62019 -4.77989,1.3782 -7.94953,3.47685 -12.89282,4.58443 -22.65113,5.07516 -5.775,0.29042 -13.2,0.96829 -16.5,1.50639 -23.85595,3.88993 -39.92199,4.49688 -53.5,2.02116 z m 30.72917,-17.58508 c -0.33229,-0.33229 -1.1948,-0.36781 -1.91667,-0.0789 -0.79773,0.31922 -0.56078,0.55618 0.60417,0.60416 1.05416,0.0434 1.64479,-0.19293 1.3125,-0.52522 z m 6.77083,-1.39583 c 0.78218,-1.2656 -0.54163,-1.2656 -2.5,0 -1.29269,0.8354 -1.26629,0.97149 0.19098,0.98469 0.93004,0.008 1.9691,-0.43469 2.30902,-0.98469 z m -1.01746,-15.97175 c 0.33032,-0.53447 -0.0489,-1.99697 -0.84282,-3.25 -0.79387,-1.25304 -1.74617,-3.85325 -2.11622,-5.77825 -1.43185,-7.44852 -1.27504,-7.29062 -6.54601,-6.5914 -6.00636,0.79677 -10.97749,2.48849 -10.97749,3.73574 0,0.52177 1.40456,1.71525 3.12124,2.65217 1.71668,0.93692 5.40229,3.61599 8.19023,5.95349 4.95539,4.15475 7.96458,5.2304 9.17107,3.27825 z m 81.97369,-31.09907 c -0.37508,-0.60689 -0.24093,-1.54448 0.29812,-2.08353 0.64011,-0.64011 1.18443,-0.44756 1.56919,0.55511 0.69959,1.82308 -0.88407,3.11933 -1.86731,1.52842 z"
           id="path4428" />
      </g>
      <path
         style="fill:none;stroke:#803300;stroke-width:6"
         d="m 1783.0547,613.70898 -1.2598,0.0547 -3.2207,-2.82812 c -9.2991,-8.1647 -18.9663,-10.5333 -46.9316,-11.5 -10.45,-0.36124 -27.1,-1.30498 -37,-2.09766 -11.2822,-0.90334 -29.383,-1.38011 -48.5,-1.27539 -33.7771,0.18503 -33.4499,0.13218 -43.8496,7.17578 -2.9428,1.99309 -6.1154,3.62305 -7.0508,3.62305 -0.9354,0 -4.3895,1.74675 -7.6738,3.88086 -3.2844,2.13411 -16.5351,9.20664 -29.4473,15.71679 -22.0899,11.13744 -23.978,12.31052 -31.9688,19.86914 -4.6708,4.41824 -9.1321,8.93321 -9.914,10.03321 -0.7819,1.1 -6.6777,7.175 -13.1016,13.5 -14.6816,14.45563 -18.3422,19.62089 -17.414,24.56836 0.3688,1.96602 1.7843,4.90072 3.1464,6.51953 l 1.9942,4.20117 8.082,-1.68555 c 2.6516,-0.53033 3.3144,-0.76124 3.5547,-0.76953 0.4005,-0.0138 -0.3736,0.59267 4.9297,1.47657 8.4853,1.41421 0.7074,0.001 -2.8281,7.07226 -8.3602,20.07342 -0.1613,38.52447 21.7187,49.19336 l -14.0254,5.42383 c 2.827,0 2.3665,5.06774 -1.5078,16.57226 -5.5989,16.62543 -5.5617,24.43794 0.1445,30.74805 4.7779,5.2835 14.6894,7.17796 21.8653,4.17969 1.9745,-0.825 3.7609,-1.5 3.9687,-1.5 0.2079,0 0.377,2.1894 0.377,4.86523 0,11.38261 12.8173,16.69277 25.7539,10.66992 6.4345,-2.99567 14.7154,-11.07848 17.2734,-16.86132 2.4834,-5.61409 4.9727,-15.26213 4.9727,-19.27149 0,-1.74852 0.8009,-4.16865 1.7793,-5.37695 12.335,-6.30818 13.4988,-2.47173 52.0898,10.38672 1.8102,2.32137 13.4766,10.82714 21.6309,15.65234 4.3098,2.55027 8.3451,5.91986 10.5,8.76953 56.7485,85.4332 230.1572,10.43327 189.3869,-39.84325 -2.6882,-4.1305 -8.4695,-15.1555 -12.8476,-24.5 -4.3781,-9.3445 -11.2397,-23.42065 -15.2461,-31.28125 -4.0064,-7.8606 -8.6229,-17.43851 -10.2598,-21.28515 l -2.9765,-6.99414 2.289,-0.8711 -4.8496,-0.45703 -13.0859,-32.71484 1.084,-1.88867 -8.2617,-20.56446 -1.7793,-0.87304 -13.375,-27.49024 z"
         id="path5267" />
      <g
         id="g4459"
         style="color:#000000;clip-rule:nonzero;display:inline;overflow:visible;visibility:visible;opacity:1;isolation:auto;mix-blend-mode:normal;color-interpolation:sRGB;color-interpolation-filters:linearRGB;solid-color:#000000;solid-opacity:1;fill:#debc87;fill-opacity:1;fill-rule:evenodd;stroke:#63420e;stroke-width:6;stroke-linecap:round;stroke-linejoin:miter;stroke-miterlimit:4;stroke-dasharray:none;stroke-dashoffset:0;stroke-opacity:1;color-rendering:auto;image-rendering:auto;shape-rendering:auto;text-rendering:auto;enable-background:accumulate">
        <g
           id="g5382"
           style="color:#000000;clip-rule:nonzero;display:inline;overflow:visible;visibility:visible;opacity:1;isolation:auto;mix-blend-mode:normal;color-interpolation:sRGB;color-interpolation-filters:linearRGB;solid-color:#000000;solid-opacity:1;fill:#debc87;fill-opacity:1;fill-rule:evenodd;stroke:#63420e;stroke-width:6;stroke-linecap:round;stroke-linejoin:miter;stroke-miterlimit:4;stroke-dasharray:none;stroke-dashoffset:0;stroke-opacity:1;color-rendering:auto;image-rendering:auto;shape-rendering:auto;text-rendering:auto;enable-background:accumulate">
          <path
             style="color:#000000;clip-rule:nonzero;display:inline;overflow:visible;visibility:visible;opacity:1;isolation:auto;mix-blend-mode:normal;color-interpolation:sRGB;color-interpolation-filters:linearRGB;solid-color:#000000;solid-opacity:1;fill:#832d13;fill-opacity:1;fill-rule:evenodd;stroke:#69250f;stroke-width:6;stroke-linecap:round;stroke-linejoin:miter;stroke-miterlimit:4;stroke-dasharray:none;stroke-dashoffset:0;stroke-opacity:1;color-rendering:auto;image-rendering:auto;shape-rendering:auto;text-rendering:auto;enable-background:accumulate"
             d="m 1506.107,738.22507 -278.8021,70.71068 -11.1117,3.03045 2.0203,9.09138 c 0,0 316.1778,-58.58885 309.1067,-61.61931"
             id="path4451" />
          <path
             style="color:#000000;clip-rule:nonzero;display:inline;overflow:visible;visibility:visible;isolation:auto;mix-blend-mode:normal;color-interpolation:sRGB;color-interpolation-filters:linearRGB;solid-color:#000000;solid-opacity:1;fill:#832d13;fill-opacity:1;fill-rule:evenodd;stroke:#69250f;stroke-width:6;stroke-linecap:round;stroke-linejoin:miter;stroke-miterlimit:4;stroke-dasharray:none;stroke-dashoffset:0;stroke-opacity:1;color-rendering:auto;image-rendering:auto;shape-rendering:auto;text-rendering:auto;enable-background:accumulate"
             d="m 1616.2441,714.97125 c -9.0914,-3.03045 44.4467,-13.13198 48.4873,-15.15228 4.0406,-2.02031 365.6752,-89.90358 365.6752,-89.90358 8.6557,-3.58675 19.0867,35.1539 10.1015,36.36549 l -370.6244,84.82236"
             id="path4453" />
          <path
             style="color:#000000;clip-rule:nonzero;display:inline;overflow:visible;visibility:visible;opacity:1;isolation:auto;mix-blend-mode:normal;color-interpolation:sRGB;color-interpolation-filters:linearRGB;solid-color:#000000;solid-opacity:1;fill:#832d13;fill-opacity:1;fill-rule:evenodd;stroke:#69250f;stroke-width:6;stroke-linecap:round;stroke-linejoin:miter;stroke-miterlimit:4;stroke-dasharray:none;stroke-dashoffset:0;stroke-opacity:1;color-rendering:auto;image-rendering:auto;shape-rendering:auto;text-rendering:auto;enable-background:accumulate"
             d="m 1521.1583,698.22303 c -7.0711,1.41421 -311.6417,94.87363 -311.6417,94.87363 l 3.8578,9.72792 c 0,0 285.8635,-73.48885 288.692,-75.61017"
             id="path4455" />
          <path
             style="color:#000000;clip-rule:nonzero;display:inline;overflow:visible;visibility:visible;isolation:auto;mix-blend-mode:normal;color-interpolation:sRGB;color-interpolation-filters:linearRGB;solid-color:#000000;solid-opacity:1;fill:#832d13;fill-opacity:1;fill-rule:evenodd;stroke:#69250f;stroke-width:6;stroke-linecap:round;stroke-linejoin:miter;stroke-miterlimit:4;stroke-dasharray:none;stroke-dashoffset:0;stroke-opacity:1;color-rendering:auto;image-rendering:auto;shape-rendering:auto;text-rendering:auto;enable-background:accumulate"
             d="m 1533.0075,694.56617 470.9331,-148.49242 c 8.2341,-3.39428 17.4394,29.95398 9.1924,32.52691 l -429.2138,127.27922"
             id="path4457" />
        </g>
      </g>
      <path
         style="opacity:0.25;fill:#ffffff;fill-rule:evenodd;stroke:none;stroke-width:1px;stroke-linecap:butt;stroke-linejoin:miter;stroke-opacity:1"
         d="m 1529.1184,750.78116 c 8.8389,-22.98097 22.6274,-32.17336 20.1526,-38.18376 -2.4749,-6.01041 -4.2427,-4.94975 -4.2427,-4.94975 0,0 -28.2843,-10.25305 -35.3553,-0.35355 -7.0711,9.89949 -6.0104,17.32411 -0.3536,24.74873 5.6569,7.42462 19.799,18.73833 19.799,18.73833 z"
         id="path5353" />
      <path
         style="fill:none;fill-rule:evenodd;stroke:#803300;stroke-width:6;stroke-linecap:round;stroke-linejoin:miter;stroke-opacity:1"
         d="m 1586,786.8622 c -22,-7.5 -22.5,-7.5 -22.5,-7.5 l -36.5,-21 c 0,0 -21,-13 -22,-22 -1,-9 -2.5,-15 0,-20 2.5,-5 6.5,-11 13,-14.5 6.5,-3.5 6.5,-3 11.5,-3.5 5,-0.5 -4,-1.5 7,-1.5 11,0 11,0 11,0 l 42.5,10 39.5,10.5 52.5,15.5"
         id="path5362" />
    </g>
    <g
       transform="translate(0,-23)"
       id="g4214">
      <path
         style="font-style:normal;font-variant:normal;font-weight:normal;font-stretch:normal;font-size:170.50175476px;line-height:125%;font-family:Alba;-inkscape-font-specification:Alba;letter-spacing:0px;word-spacing:0px;fill:#6e4a0f;fill-opacity:1;stroke:none;stroke-width:1px;stroke-linecap:butt;stroke-linejoin:miter;stroke-opacity:1"
         id="path4197"
         d="m 1771.541,827.04688 c -5.151,-10e-6 -10.0882,2.11753 -13.7715,5.80078 -3.6037,3.60375 -5.6328,8.49978 -5.6328,13.60156 0,5.10178 2.0054,9.99802 5.5567,13.69726 a 5.2515803,5.2515803 0 0 0 0.1523,0.1504 c 2.1029,2.01876 4.6147,3.46956 7.3086,4.40429 -2.1222,0.80253 -4.0711,2.00279 -5.6797,3.61133 -2.1404,2.14041 -3.4834,4.91766 -4.1328,7.90234 -0.7115,-2.86234 -2.0843,-5.51374 -4.1934,-7.55273 -3.0457,-3.15042 -7.4203,-4.78711 -11.8886,-4.78711 l -33.793,0 0,-3.78516 c 0,-4.5172 -1.6392,-8.93027 -4.7773,-12.06836 -3.1381,-3.13805 -7.5511,-4.77734 -12.0684,-4.77734 -4.5173,0 -8.9295,1.64044 -12.0664,4.77734 a 5.2515803,5.2515803 0 0 0 -0.1,0.10157 c -2.9947,3.1611 -4.5098,7.50523 -4.5098,11.96679 l 0,12.89649 c -0.7956,-1.75558 -1.8499,-3.38057 -3.248,-4.71875 -3.1337,-3.1042 -7.5186,-4.73438 -12.0137,-4.73438 -10.6365,0 -20.2021,3.87783 -27.582,11.25782 -7.2824,7.28235 -11.0879,16.79642 -11.0879,27.4121 l 0,9.37891 c 0,-0.40428 -9e-4,0.0773 -0.01,0.37891 -0.01,0.30158 -0.017,0.74482 -0.031,1.32617 -0.028,1.1627 -0.072,2.88173 -0.1289,5.1543 a 5.2515803,5.2515803 0 0 0 -0,0.13086 l 0,3.41015 c 0,1.74443 -0.3775,2.63727 -1.5293,3.78906 -0.9855,0.98549 -1.8081,1.35938 -3.6192,1.35938 -4.5173,0 -8.9303,1.63929 -12.0683,4.77734 a 5.2515803,5.2515803 0 0 0 -0.1,0.10157 c -2.9958,3.16234 -4.5078,7.50728 -4.5078,11.96679 0,4.45952 1.512,8.80446 4.5078,11.9668 a 5.2515803,5.2515803 0 0 0 0.2012,0.20117 c 3.1624,2.9959 7.5073,4.50781 11.9668,4.50781 10.5289,0 19.9949,-3.89414 27.2559,-11.27539 7.3481,-7.35618 11.2838,-16.81555 11.4121,-27.33007 a 5.2515803,5.2515803 0 0 0 0,-0.0195 l 0.1699,-19.77929 a 5.2515803,5.2515803 0 0 0 0,-0.0449 c 0,-1.65154 0.3365,-2.42443 1.3593,-3.44726 0.9496,-0.94958 2.145,-1.55297 4.4922,-1.71484 a 5.2515803,5.2515803 0 0 0 0.1621,-0.0137 c 4.3408,-0.43407 8.3988,-2.11747 11.3731,-5.09179 1.2987,-1.29876 2.2697,-2.85754 3.0234,-4.52344 l 0,31.33008 c 0,11.63739 4.1458,22.00511 12.1113,29.9707 7.9656,7.96559 18.332,12.10938 29.9688,12.10938 11.5361,0 21.8447,-4.15333 29.8008,-12.10938 a 5.2515803,5.2515803 0 0 0 0.029,-0.0293 c 5.6919,-5.78377 9.3496,-12.77416 11.0097,-20.5039 l 0,15.96679 c 0,4.46158 1.5151,8.8057 4.5098,11.9668 a 5.2515803,5.2515803 0 0 0 0.2012,0.20117 c 3.1612,2.99479 7.5053,4.50782 11.9648,4.50782 4.4596,0 8.8045,-1.51197 11.9668,-4.50782 a 5.2515803,5.2515803 0 0 0 0.1016,-0.0996 c 3.138,-3.13802 4.7773,-7.55104 4.7773,-12.06836 l 0,-21.2539 c 1.9302,8.97971 6.2309,17.06677 12.9375,23.77344 9.3063,9.30631 21.2013,14.15625 34.5742,14.15625 4.4596,0 8.8037,-1.51303 11.9649,-4.50782 a 5.2515803,5.2515803 0 0 0 0.1015,-0.0996 c 2.0402,-2.04019 3.3765,-4.64364 4.1114,-7.4414 0.6894,2.74047 1.9366,5.29796 3.8711,7.33984 a 5.2515803,5.2515803 0 0 0 0.2011,0.20117 c 3.1623,2.99585 7.5073,4.50782 11.9668,4.50782 4.4596,0 8.8037,-1.51303 11.9649,-4.50782 a 5.2515803,5.2515803 0 0 0 0.1015,-0.0996 c 3.1368,-3.13687 4.7793,-7.54899 4.7793,-12.06836 l 0,-16.40039 5.8301,0 c 2.6821,0 4.3071,0.68213 6.0059,2.38086 a 5.2515803,5.2515803 0 0 0 0.08,0.0781 c 1.7946,1.71986 2.4726,3.29838 2.4726,5.92773 l 0,20.11914 c 0,11.5367 4.1556,21.84508 12.1113,29.80078 8.0547,8.05462 18.413,12.28125 29.9688,12.28125 l 0.6816,0 c 4.4952,0 8.88,-1.63023 12.0137,-4.73437 3.1819,-3.0454 4.834,-7.44682 4.834,-11.94141 0,-4.51926 -1.6424,-8.93141 -4.7793,-12.06836 -3.1369,-3.13686 -7.549,-4.77929 -12.0684,-4.77929 l -0.6816,0 c -2.6294,0 -4.3244,-0.70137 -6.1758,-2.55274 -1.6996,-1.69968 -2.3828,-3.32559 -2.3828,-6.00586 l 0,-5.71093 c 0.7521,2.00114 1.8581,3.84651 3.332,5.40234 a 5.2515803,5.2515803 0 0 0 0.2012,0.20117 c 3.1624,2.9959 7.5073,4.50781 11.9668,4.50781 10.5289,0 19.9933,-3.89453 27.2539,-11.27539 7.3478,-7.3558 11.2858,-16.8148 11.4141,-27.33007 a 5.2515803,5.2515803 0 0 0 0,-0.0195 l 0.1699,-19.77929 a 5.2515803,5.2515803 0 0 0 0,-0.0449 c 0,-1.65154 0.3366,-2.42443 1.3594,-3.44726 0.9496,-0.94958 2.145,-1.55297 4.4922,-1.71484 a 5.2515803,5.2515803 0 0 0 0.1621,-0.0137 c 4.3408,-0.43407 8.3988,-2.11763 11.3731,-5.09179 3.0435,-3.04353 4.6074,-7.34453 4.6074,-11.72657 0,-4.49263 -1.6491,-8.89495 -4.8321,-11.9414 -3.1336,-3.1043 -7.5185,-4.73438 -12.0136,-4.73438 -10.6366,0 -20.2021,3.87788 -27.5821,11.25782 -7.2823,7.28237 -11.0878,16.79645 -11.0878,27.4121 l 0,9.37891 c 0,-0.40428 -9e-4,0.0773 -0.01,0.37891 -0.01,0.30158 -0.017,0.74482 -0.031,1.32617 -0.028,1.1627 -0.072,2.88173 -0.1289,5.1543 a 5.2515803,5.2515803 0 0 0 -0,0.13086 l 0,3.41015 c 0,1.74207 -0.3782,2.63605 -1.5312,3.78906 -0.9869,0.98688 -1.8061,1.35938 -3.6172,1.35938 -4.5173,0 -8.9303,1.63929 -12.0684,4.77734 a 5.2515803,5.2515803 0 0 0 -0.1,0.10157 c -1.4739,1.55582 -2.5799,3.4012 -3.332,5.40234 l 0,-1.2793 c 0,-11.81795 -4.498,-22.20878 -12.8633,-30.11719 5.8661,-7.38818 9.1133,-16.14829 9.1133,-25.80664 0,-4.49457 -1.6521,-8.896 -4.834,-11.9414 -3.1336,-3.10415 -7.5185,-4.73438 -12.0137,-4.73438 -4.7093,0 -9.2118,1.32061 -12.3339,4.53711 -3.1222,3.2165 -4.3399,7.70952 -4.3399,12.48047 0,2.45556 -0.6794,4.10062 -2.5215,5.95899 -1.8131,1.72192 -3.405,2.33668 -5.8789,2.26171 a 5.2515803,5.2515803 0 0 0 -0.037,-0.002 l -2.2012,-0.0508 0,-43.12109 c 0,-4.51937 -1.6425,-8.93149 -4.7793,-12.06836 -3.1369,-3.13691 -7.549,-4.77735 -12.0664,-4.77735 -4.5172,0 -8.9303,1.63935 -12.0683,4.77735 a 5.2515803,5.2515803 0 0 0 -0.1,0.10156 c -2.9961,3.16235 -4.5078,7.50728 -4.5078,11.9668 l 0,27.70898 c -0.8012,-1.98672 -1.9542,-3.81545 -3.4747,-5.33594 -3.1369,-3.13691 -7.549,-4.77734 -12.0664,-4.77734 -13.4748,0 -25.4293,4.83943 -34.7441,14.1543 a 5.2515803,5.2515803 0 0 0 -0.025,0.0254 c -6.6092,6.69966 -10.8348,14.7912 -12.7422,23.78906 l 0,-20.95313 c 0,-4.69603 -1.2859,-9.1762 -4.4648,-12.30859 -1.5806,-1.55746 -3.4831,-2.64122 -5.5762,-3.3418 2.5219,-0.9554 4.8548,-2.39389 6.7969,-4.33593 3.6832,-3.68324 5.8027,-8.62067 5.8027,-13.77344 0,-5.11699 -2.1238,-10.01479 -5.8105,-13.59375 -3.5799,-3.6876 -8.4786,-5.80859 -13.5938,-5.80859 z m -460.5508,1.5332 c -18.2637,0 -34.3073,6.55738 -47.0214,19.27148 -12.7141,12.71411 -19.2715,28.75767 -19.2715,47.02149 0,18.2638 6.5576,34.30562 19.2715,47.01953 12.7141,12.7141 28.7577,19.27148 47.0214,19.27148 4.4616,0 8.8049,-1.51612 11.9649,-4.50976 a 5.2515803,5.2515803 0 0 0 0.1015,-0.0996 c 1.972,-1.97208 3.2795,-4.47337 4.0332,-7.16407 0.7256,2.50328 1.9176,4.83579 3.7051,6.72266 a 5.2515803,5.2515803 0 0 0 0.2012,0.20117 c 3.1612,2.99479 7.5053,4.50782 11.9648,4.50782 4.4596,0 8.8045,-1.51197 11.9668,-4.50782 a 5.2515803,5.2515803 0 0 0 0.1016,-0.0996 c 3.138,-3.13802 4.7773,-7.55104 4.7773,-12.06836 l 0,-38.70312 c 0,-2.6575 0.6836,-4.27698 2.3516,-5.96094 1.8157,-1.72328 3.552,-2.42773 6.209,-2.42773 2.4782,0 4.009,0.6499 5.7558,2.47265 a 5.2515803,5.2515803 0 0 0 0.1582,0.15821 c 1.8218,1.74589 2.4727,3.27955 2.4727,5.75781 a 5.2515803,5.2515803 0 0 0 0,0.0176 l 0.1719,50.79101 c 0,11.52882 4.1494,21.83116 12.0957,29.78516 7.9563,8.07668 18.3353,12.29687 29.9844,12.29687 l 0.6816,0 c 4.4703,0 8.8432,-1.64078 11.8867,-4.78906 3.1483,-3.04353 4.7891,-7.41639 4.7891,-11.88672 0,-4.49505 -1.6302,-8.87997 -4.7344,-12.01367 -3.0454,-3.18192 -7.4468,-4.83398 -11.9414,-4.83398 l -0.6816,0 c -2.6294,0 -4.3271,-0.70216 -6.1778,-2.55274 -1.6987,-1.69873 -2.3808,-3.32378 -2.3808,-6.00586 l 0,-32.97656 c 1.9163,8.96409 6.13,17.02806 12.7187,23.70703 a 5.2515803,5.2515803 0 0 0 0.025,0.0254 c 9.3146,9.31458 21.2687,14.15625 34.7441,14.15625 13.4756,0 25.4296,-4.84167 34.7442,-14.15625 6.8519,-6.85189 11.2356,-15.15059 13.0996,-24.41406 l 0,56.33594 c 0,4.45961 1.5131,8.80371 4.5078,11.96484 a 5.2515803,5.2515803 0 0 0 0.1,0.10156 c 3.1369,3.13688 7.549,4.7793 12.0684,4.7793 4.5193,0 8.9306,-1.64351 12.0664,-4.7793 3.1358,-3.13582 4.7793,-7.54714 4.7793,-12.0664 l 0,-27.44727 c 0.7414,1.76017 1.7219,3.40842 3.041,4.80078 a 5.2515803,5.2515803 0 0 0 0.1,0.10157 c 3.1369,3.13686 7.549,4.77929 12.0684,4.77929 13.4754,0 25.4295,-4.84167 34.7441,-14.15625 9.3146,-9.31457 14.1563,-21.26867 14.1563,-34.74414 0,-13.46915 -4.8454,-25.38067 -14.17,-34.58594 -9.3126,-9.30608 -21.2613,-14.14453 -34.7304,-14.14453 -13.4756,0 -25.4296,4.84167 -34.7442,14.15625 -7.8565,7.85656 -12.2685,17.74525 -13.4609,28.81055 -1.2088,-11.07521 -5.6862,-20.97152 -13.6387,-28.82227 -9.3127,-9.30608 -21.2612,-14.14453 -34.7305,-14.14453 -13.4754,0 -25.4295,4.84167 -34.7441,14.15625 -6.8615,6.86143 -11.2407,15.22115 -13.0391,24.59766 -0.7156,-10.24677 -4.6927,-19.45367 -12.0019,-26.6543 -7.9534,-7.94617 -18.2533,-12.09961 -29.7832,-12.09961 -2.9233,0 -5.7745,0.31836 -8.5606,0.86914 l 0,-19.14648 c 0,-4.49265 -1.649,-8.89496 -4.832,-11.94141 -3.1336,-3.10414 -7.5185,-4.73437 -12.0137,-4.73437 -4.5193,0 -8.9306,1.64351 -12.0664,4.7793 -1.8898,1.88989 -3.1245,4.28867 -3.8515,6.87304 -0.7676,-2.61736 -2.0771,-5.03817 -4.041,-6.91797 -3.1326,-3.10306 -7.5166,-4.73437 -12.0118,-4.73437 z m 15.295,23.89258 0,84.79882 c -0.7902,-1.79125 -1.8372,-3.46018 -3.2286,-4.85156 -3.1369,-3.13691 -7.549,-4.77734 -12.0664,-4.77734 -9.4779,0 -16.915,-3.00883 -23.3945,-9.375 -6.3662,-6.47949 -9.375,-13.9165 -9.375,-23.39453 0,-9.49308 3.0072,-16.86078 9.3731,-23.22657 6.4937,-6.49376 13.9225,-9.54492 23.3964,-9.54492 4.5174,0 8.9295,-1.64043 12.0664,-4.77734 1.3914,-1.39138 2.4384,-3.06031 3.2286,-4.85156 z m 525.1543,34.29687 0,50.64649 c -0.8013,-1.98732 -1.9542,-3.81539 -3.4747,-5.33594 -3.1358,-3.13579 -7.547,-4.7793 -12.0664,-4.7793 -4.4586,0 -7.6875,-1.33409 -10.7812,-4.42773 -3.0942,-3.09422 -4.4277,-6.32067 -4.4277,-10.7793 0,-4.45863 1.3341,-7.68765 4.4277,-10.78125 a 5.2515803,5.2515803 0 0 0 0.053,-0.0527 c 3.1064,-3.19513 6.3046,-4.54493 10.7285,-4.54493 4.4616,0 8.8049,-1.51612 11.9649,-4.50976 a 5.2515803,5.2515803 0 0 0 0.1015,-0.0996 c 1.5205,-1.52056 2.6734,-3.34863 3.4747,-5.33594 z m -96.5743,0.6875 0,23.83203 c -0.8027,-2.23143 -2.0238,-4.29536 -3.707,-5.97851 -3.1058,-3.1058 -7.4567,-4.77735 -11.8984,-4.77735 -4.4419,0 -8.7784,1.65093 -11.9707,4.6836 a 5.2515803,5.2515803 0 0 0 -0.096,0.0937 c -3.1034,3.10351 -4.7793,7.45253 -4.7793,11.89648 l 0,1.53516 c 0,2.65698 -0.7036,4.3905 -2.4278,6.20703 -1.6839,1.66794 -3.3034,2.35156 -5.9609,2.35156 -2.6353,0 -4.3617,-0.70309 -6.1621,-2.39648 -1.6935,-1.80052 -2.3965,-3.52686 -2.3965,-6.16211 l 0,-21.34571 33.793,0 c 4.696,0 9.1762,-1.28593 12.3086,-4.46484 1.531,-1.55376 2.5952,-3.42348 3.2968,-5.47461 z m -296.9297,9.59766 c 4.4575,0 7.6846,1.33492 10.7793,4.42969 a 5.2515803,5.2515803 0 0 0 0.053,0.0527 c 3.1963,3.10752 4.5469,6.30378 4.5469,10.72656 0,4.42278 -1.3666,7.7162 -4.5997,10.94922 -3.0947,3.09477 -6.3218,4.42969 -10.7793,4.42969 -4.4428,0 -7.6625,-1.33099 -10.748,-4.4043 -3.1138,-3.21331 -4.4609,-6.5294 -4.4609,-10.97461 0,-4.45739 1.3348,-7.68445 4.4296,-10.77929 3.0948,-3.09477 6.322,-4.42969 10.7793,-4.42969 z m 96.5743,0 c 4.4574,0 7.6844,1.33484 10.7793,4.42969 a 5.2515803,5.2515803 0 0 0 0.053,0.0527 c 3.1957,3.10695 4.5449,6.30261 4.5449,10.72656 0,4.42395 -1.3652,7.71677 -4.5976,10.94922 -3.0949,3.09485 -6.3219,4.42969 -10.7793,4.42969 -4.5174,0 -8.9304,1.63934 -12.0684,4.77734 -1.3699,1.36987 -2.3828,3.01977 -3.1406,4.79297 l 0,-24.94922 c 0,-4.45856 1.3335,-7.68504 4.4277,-10.77929 3.0943,-3.09423 6.3238,-4.42969 10.7813,-4.42969 z" />
      <g
         id="text3365"
         style="font-style:normal;font-variant:normal;font-weight:normal;font-stretch:normal;font-size:170.50175476px;line-height:125%;font-family:Alba;-inkscape-font-specification:Alba;letter-spacing:0px;word-spacing:0px;fill:#f8e497;fill-opacity:1;stroke:none;stroke-width:1px;stroke-linecap:butt;stroke-linejoin:miter;stroke-opacity:1">
        <path
           id="path4160"
           d="m 1310.9898,955.91177 q -25.5753,0 -43.3075,-17.73218 -17.7322,-17.73218 -17.7322,-43.30744 0,-25.57527 17.7322,-43.30745 17.7322,-17.73218 43.3075,-17.73218 5.115,0 8.3546,3.23953 3.2395,3.06903 3.2395,8.18409 0,5.11505 -3.2395,8.35458 -3.2396,3.23953 -8.3546,3.23953 -16.0272,0 -27.1098,11.08262 -10.9121,10.91211 -10.9121,26.93928 0,16.02716 10.9121,27.10977 11.0826,10.91212 27.1098,10.91212 5.115,0 8.3546,3.23953 3.2395,3.23953 3.2395,8.35459 0,5.11505 -3.2395,8.35458 -3.2396,3.06903 -8.3546,3.06903 z" />
        <path
           id="path4162"
           d="m 1419.6873,993.08116 -0.682,0 q -15.6862,0 -26.2573,-10.74161 -10.5711,-10.57111 -10.5711,-26.08677 l -0.1705,-50.80953 q 0,-5.62655 -4.092,-9.54809 -3.9216,-4.09205 -9.5481,-4.09205 -5.7971,0 -9.8891,3.92154 -3.9216,3.92155 -3.9216,9.7186 l 0,38.7039 q 0,5.11506 -3.2395,8.35459 -3.2395,3.06903 -8.3546,3.06903 -5.115,0 -8.3546,-3.06903 -3.069,-3.23953 -3.069,-8.35459 l 0,-98.89101 q 0,-5.11506 3.069,-8.18409 3.2396,-3.23953 8.3546,-3.23953 5.1151,0 8.3546,3.23953 3.2395,3.06903 3.2395,8.18409 l 0,26.08676 q 6.4791,-2.55752 13.8107,-2.55752 15.5156,0 26.0867,10.57111 10.7416,10.57111 10.7416,26.08676 l 0,50.80953 q 0,5.79706 3.9216,9.7186 4.092,4.09204 9.8891,4.09204 l 0.682,0 q 5.115,0 8.1841,3.23953 3.2395,3.23954 3.2395,8.35459 0,5.11505 -3.2395,8.18408 -3.0691,3.23954 -8.1841,3.23954 z" />
        <path
           id="path4164"
           d="m 1457.9356,868.78538 q 18.4142,0 31.0314,12.61713 12.6171,12.44663 12.6171,30.86081 0,18.41419 -12.6171,31.03132 -12.6172,12.61713 -31.0314,12.61713 -18.4142,0 -31.0313,-12.61713 -12.4466,-12.61713 -12.4466,-31.03132 0,-18.41418 12.4466,-30.86081 12.6171,-12.61713 31.0313,-12.61713 z m 0,23.01773 q -8.5251,0 -14.4926,5.96757 -5.9676,5.96756 -5.9676,14.49264 0,8.52509 5.9676,14.66316 5.9675,5.96756 14.4926,5.96756 8.5251,0 14.4927,-5.96756 6.138,-6.13807 6.138,-14.66316 0,-8.52508 -6.138,-14.49264 -5.9676,-5.96757 -14.4927,-5.96757 z" />
        <path
           id="path4166"
           d="m 1554.5089,932.89404 q 8.5251,0 14.4926,-5.96756 6.1381,-6.13807 6.1381,-14.66316 0,-8.52508 -6.1381,-14.49264 -5.9675,-5.96757 -14.4926,-5.96757 -8.5251,0 -14.4927,5.96757 -5.9675,5.96756 -5.9675,14.49264 l 0,66.66619 q 0,5.11505 -3.2395,8.35459 -3.2396,3.23953 -8.3546,3.23953 -5.1151,0 -8.3546,-3.23953 -3.0691,-3.23954 -3.0691,-8.35459 l 0,-66.66619 q 0,-18.41418 12.4467,-30.86081 12.6171,-12.61713 31.0313,-12.61713 18.4142,0 31.0313,12.61713 12.6171,12.44663 12.6171,30.86081 0,18.41419 -12.6171,31.03132 -12.6171,12.61713 -31.0313,12.61713 -5.1151,0 -8.3546,-3.23953 -3.069,-3.23953 -3.069,-8.35459 0,-5.11505 3.069,-8.18408 3.2395,-3.23953 8.3546,-3.23953 z" />
        <path
           id="path4168"
           d="m 1649.1822,895.04265 q -2.8986,2.89853 -2.8986,7.16107 l -0.1705,19.7782 q -0.1705,13.98115 -9.8891,23.69975 -9.5481,9.7186 -23.5292,9.7186 -5.1151,0 -8.3546,-3.06903 -3.069,-3.23954 -3.069,-8.35459 0,-5.11505 3.069,-8.35458 3.2395,-3.23954 8.3546,-3.23954 4.433,0 7.3316,-2.89853 3.069,-3.06903 3.069,-7.50208 0,-1.53451 0,-3.41003 0.1705,-6.82007 0.1705,-6.99057 l 0,-9.3776 q 0,-14.15164 9.5481,-23.69974 9.7186,-9.7186 23.8703,-9.7186 5.115,0 8.3545,3.23953 3.2396,3.06903 3.2396,8.18409 0,4.94455 -3.0691,8.01358 -3.069,3.06903 -8.184,3.58053 -4.9446,0.34101 -7.8431,3.23954 z" />
        <path
           id="path4170"
           d="m 1750.684,918.74239 q 0,15.51566 -10.5711,26.25727 -10.5711,10.57111 -26.0868,10.57111 -15.6861,0 -26.2572,-10.57111 -10.5711,-10.57111 -10.5711,-26.25727 l 0,-58.6526 q 0,-5.11505 3.069,-8.35459 3.2395,-3.23953 8.3546,-3.23953 5.115,0 8.3546,3.23953 3.2395,3.23954 3.2395,8.35459 l 0,9.03659 39.0449,0 q 5.115,0 8.1841,3.23953 3.2395,3.06904 3.2395,8.18409 0,11.59412 -11.4236,11.59412 l -39.0449,0 0,26.59827 q 0,5.79706 3.9215,9.8891 4.0921,3.92154 9.8891,3.92154 5.7971,0 9.7186,-3.92154 3.9216,-4.09204 3.9216,-9.8891 l 0,-1.53451 q 0,-4.94456 3.2395,-8.18409 3.41,-3.23953 8.3546,-3.23953 4.9445,0 8.1841,3.23953 3.2395,3.23953 3.2395,8.18409 l 0,1.53451 z" />
        <path
           id="path4172"
           d="m 1783.1353,944.14715 q 0,5.11506 -3.2395,8.35459 -3.2396,3.06903 -8.3546,3.06903 -5.1151,0 -8.3546,-3.06903 -3.069,-3.23953 -3.069,-8.35459 l 0,-63.93815 q 0,-5.11506 3.069,-8.18409 3.2395,-3.23953 8.3546,-3.23953 11.5941,0 11.5941,11.42362 l 0,63.93815 z M 1771.5412,832.298 q -5.7971,0 -10.0596,4.26255 -4.0921,4.09204 -4.0921,9.8891 0,5.79706 4.0921,10.0596 4.2625,4.09204 10.0596,4.09204 5.797,0 9.8891,-4.09204 4.2625,-4.26254 4.2625,-10.0596 0,-5.79706 -4.2625,-9.8891 -4.0921,-4.26255 -9.8891,-4.26255 z" />
        <path
           id="path4174"
           d="m 1835.8976,891.46211 q -8.5251,0 -14.4927,6.13806 -5.9675,5.96757 -5.9675,14.49265 0,8.52509 5.9675,14.49265 5.9676,5.96756 14.4927,5.96756 5.115,0 8.3546,3.23954 3.2395,3.23953 3.2395,8.35458 0,5.11506 -3.2395,8.35459 -3.2396,3.06903 -8.3546,3.06903 -18.2437,0 -30.8609,-12.61713 -12.6171,-12.61713 -12.6171,-30.86082 0,-18.41419 12.4466,-31.03132 12.6172,-12.61713 31.0314,-12.61713 5.115,0 8.3546,3.23954 3.2395,3.23953 3.2395,8.35458 0,5.11506 -3.2395,8.35459 -3.2396,3.06903 -8.3546,3.06903 z" />
        <path
           id="path4176"
           d="m 1942.1122,993.08116 -0.682,0 q -15.5157,0 -26.2573,-10.74161 -10.5711,-10.57111 -10.5711,-26.08677 l 0,-20.11921 q 0,-5.79706 -4.0921,-9.7186 -3.9215,-3.92154 -9.7186,-3.92154 l -11.0826,0 0,21.65372 q 0,5.11506 -3.2395,8.35459 -3.2395,3.06903 -8.3546,3.06903 -5.115,0 -8.3546,-3.06903 -3.069,-3.23953 -3.069,-8.35459 l 0,-98.55001 q 0,-5.11505 3.069,-8.35459 3.2396,-3.23953 8.3546,-3.23953 5.1151,0 8.3546,3.23953 3.2395,3.23954 3.2395,8.35459 l 0,48.252 7.3316,0.1705 q 5.6266,0.1705 9.7186,-3.75104 4.0921,-4.09204 4.0921,-9.7186 0,-11.76462 11.4236,-11.76462 5.115,0 8.3546,3.23953 3.2395,3.06903 3.2395,8.18409 0,15.51565 -11.2531,26.42777 15.0041,11.08261 15.0041,29.4968 l 0,20.11921 q 0,5.79706 3.9216,9.7186 4.092,4.09204 9.8891,4.09204 l 0.682,0 q 5.115,0 8.3546,3.23953 3.2395,3.23954 3.2395,8.35459 0,5.11505 -3.2395,8.18408 -3.2396,3.23954 -8.3546,3.23954 z" />
        <path
           id="path4178"
           d="m 1984.8575,895.04265 q -2.8985,2.89853 -2.8985,7.16107 l -0.1705,19.7782 q -0.1705,13.98115 -9.8891,23.69975 -9.5481,9.7186 -23.5292,9.7186 -5.1151,0 -8.3546,-3.06903 -3.0691,-3.23954 -3.0691,-8.35459 0,-5.11505 3.0691,-8.35458 3.2395,-3.23954 8.3546,-3.23954 4.433,0 7.3315,-2.89853 3.0691,-3.06903 3.0691,-7.50208 0,-1.53451 0,-3.41003 0.1705,-6.82007 0.1705,-6.99057 l 0,-9.3776 q 0,-14.15164 9.5481,-23.69974 9.7186,-9.7186 23.8702,-9.7186 5.1151,0 8.3546,3.23953 3.2395,3.06903 3.2395,8.18409 0,4.94455 -3.069,8.01358 -3.069,3.06903 -8.1841,3.58053 -4.9445,0.34101 -7.8431,3.23954 z" />
      </g>
    </g>
  </g>
</svg>
